<svg xmlns="http://www.w3.org/2000/svg" width="159" height="408" fill="none" viewBox="0 0 159 408"><path fill="#F7A9A0" d="M154.946 406.764C152.217 407.568 71.8372 405.935 68.9041 404.11C67.7718 403.433 71.9737 332.191 71.9737 332.191L122.259 333.11L119.831 380.771C119.831 380.771 149.475 393.914 152.477 396.237C155.478 398.559 157.702 405.96 154.946 406.764Z"/><path fill="#fff" d="M154.946 406.751C152.217 407.555 71.8372 405.934 68.9042 404.11C68.3585 403.778 69.0133 387.763 69.9001 370.345L120.376 370.728L119.858 380.771C119.858 380.771 149.503 393.901 152.504 396.236C155.505 398.572 157.702 405.96 154.946 406.751Z"/><path fill="#FFCF40" d="M155.533 407.096C152.722 407.9 71.6463 406.892 68.6586 405.028C67.5263 404.327 68.6586 392.561 68.6586 379.507L119.926 380.605C119.926 380.605 150.021 394.067 153.05 396.453C156.078 398.84 158.329 406.292 155.533 407.096Z"/><path fill="#263238" d="M154.468 404.122C141.154 403.497 87.3621 402.145 74.1428 402.476C74.0336 402.476 74.0336 402.54 74.1428 402.553C87.3212 403.446 141.126 404.39 154.468 404.327C154.741 404.288 154.755 404.122 154.468 404.122Z"/><path fill="#263238" d="M148.016 393.582C146.534 393.512 145.052 393.73 143.665 394.222C142.277 394.714 141.013 395.47 139.953 396.441C138.037 398.175 136.908 400.533 136.802 403.025C136.802 403.102 136.938 403.102 136.952 403.025C137.473 400.565 138.833 398.33 140.828 396.655C142.823 394.98 145.345 393.955 148.016 393.735C148.037 393.735 148.058 393.727 148.074 393.713C148.089 393.699 148.097 393.679 148.097 393.659C148.097 393.639 148.089 393.619 148.074 393.605C148.058 393.59 148.037 393.582 148.016 393.582Z"/><path fill="#263238" d="M125.069 381.906C119.735 381.702 113.501 383.323 110.063 387.317C109.94 387.47 110.172 387.649 110.336 387.572C115.061 385.382 120.023 383.671 125.137 382.468C125.194 382.438 125.24 382.394 125.269 382.34C125.299 382.287 125.31 382.226 125.303 382.166C125.296 382.106 125.27 382.049 125.228 382.003C125.187 381.957 125.131 381.923 125.069 381.906Z"/><path fill="#263238" d="M129.135 383.501C123.801 383.31 117.58 384.918 114.128 388.925C114.005 389.078 114.237 389.244 114.401 389.18C119.126 386.988 124.088 385.277 129.203 384.076C129.258 384.044 129.303 383.998 129.331 383.944C129.36 383.889 129.371 383.828 129.364 383.768C129.357 383.708 129.332 383.651 129.291 383.604C129.25 383.556 129.196 383.521 129.135 383.501Z"/><path fill="#263238" d="M133.214 385.109C127.88 384.905 121.645 386.526 118.207 390.52C118.071 390.673 118.316 390.851 118.48 390.775C123.204 388.583 128.167 386.872 133.282 385.671C133.338 385.641 133.384 385.597 133.414 385.543C133.443 385.489 133.455 385.429 133.448 385.369C133.44 385.309 133.414 385.252 133.373 385.206C133.331 385.16 133.276 385.126 133.214 385.109Z"/><path fill="#263238" d="M137.293 386.704C131.959 386.513 125.724 388.121 122.286 392.128C122.15 392.281 122.395 392.447 122.546 392.383C127.276 390.193 132.242 388.482 137.361 387.279C137.422 387.251 137.472 387.206 137.505 387.151C137.538 387.095 137.552 387.032 137.544 386.969C137.537 386.906 137.509 386.847 137.464 386.799C137.418 386.752 137.359 386.719 137.293 386.704Z"/><path fill="#263238" d="M77.8671 390.673C71.8782 390.545 71.6599 399.248 77.6488 399.376C83.6378 399.503 83.8561 390.8 77.8671 390.673Z"/><path fill="#263238" d="M131.195 368.725C128.548 366.568 125.097 368.533 123.364 370.664C120.484 374.385 118.693 378.743 118.166 383.31C118.166 383.351 118.184 383.39 118.214 383.418C118.245 383.447 118.287 383.463 118.33 383.463C118.35 383.557 118.393 383.646 118.456 383.722C118.519 383.798 118.601 383.859 118.694 383.9C118.787 383.941 118.889 383.961 118.991 383.958C119.094 383.955 119.195 383.93 119.285 383.884C123.146 381.511 127.593 379.431 130.567 376.036C132.259 374.046 133.691 370.766 131.195 368.725ZM124.374 379.176C122.505 380.388 120.581 381.498 118.753 382.761C119.776 380.299 120.677 377.81 121.959 375.449C122.555 374.299 123.239 373.19 124.005 372.132C125.206 370.511 130.567 366.466 130.949 371.902C131.14 374.901 126.584 377.734 124.36 379.176H124.374Z"/><path fill="#263238" d="M104.865 384.841C109.49 385.62 114.319 384.497 118.903 383.948C119.004 383.927 119.097 383.884 119.177 383.823C119.256 383.762 119.319 383.684 119.36 383.595C119.401 383.507 119.42 383.411 119.414 383.315C119.408 383.219 119.378 383.125 119.326 383.042C119.343 383.03 119.357 383.015 119.366 382.997C119.376 382.979 119.381 382.96 119.381 382.94C119.381 382.92 119.376 382.901 119.366 382.883C119.357 382.865 119.343 382.85 119.326 382.838C115.765 379.678 111.374 377.455 106.598 376.394C103.801 375.819 99.7766 376.394 99.2991 379.673C98.8216 382.953 102.164 384.382 104.865 384.841ZM101.727 381.919C98.235 377.555 105.111 377.376 107.184 377.874C108.501 378.215 109.791 378.641 111.045 379.15C113.664 380.171 116.093 381.523 118.576 382.774C116.311 382.914 114.074 383.233 111.754 383.45C109.067 383.706 103.61 384.331 101.727 381.919Z"/><path fill="#030402" d="M108.876 406.994C89.0266 406.585 70.0775 405.909 68.6587 405.016C67.54 404.34 68.6587 392.829 68.6587 379.865C77.0214 385.301 97.9486 399.542 108.876 406.994Z" opacity=".1"/><path fill="#263238" d="M122.259 368.125L67.7583 367.461C67.7583 367.461 80.4046 257.057 80.0363 254.9C79.5042 252.144 44.0071 121.961 44.0071 121.961H91.755C91.755 121.961 129.421 243.301 130.772 254.99C132.914 273.875 122.259 368.125 122.259 368.125Z"/><path fill="#37474F" d="M74.9614 358.58C77.9218 358.376 80.9094 358.414 83.8698 358.376C86.8301 358.338 89.8042 358.376 92.7782 358.376C98.7171 358.427 104.629 358.525 110.513 358.669C112.137 358.669 113.76 358.759 115.383 358.835C117.007 358.912 118.849 359.18 120.581 359.243C120.718 359.243 120.704 359.435 120.581 359.435C119.135 359.435 117.675 359.652 116.216 359.69C114.756 359.728 113.187 359.69 111.673 359.69H102.778C96.8436 359.69 90.9092 359.563 85.043 359.333C81.687 359.205 78.3038 359.167 74.975 358.848C74.944 358.84 74.9163 358.824 74.896 358.801C74.8758 358.777 74.864 358.749 74.8625 358.719C74.8609 358.689 74.8697 358.659 74.8875 358.634C74.9053 358.609 74.9312 358.59 74.9614 358.58Z"/><path fill="#37474F" d="M54.4979 132.475C58.7679 146.627 62.6833 160.906 66.5031 175.159C70.3229 189.413 74.1428 203.705 77.949 217.984L83.6378 239.409C85.4931 246.351 87.635 253.343 88.0988 260.528C88.5626 267.712 87.5668 275.19 86.9119 282.45C86.2571 289.711 85.5477 297.074 84.9065 304.373C83.5423 318.997 82.178 333.62 80.5273 348.206C80.3227 350.03 80.1044 351.855 79.9135 353.693C79.9135 353.846 79.6406 353.846 79.6542 353.693C80.6774 339.069 81.7551 324.445 83.0102 309.835C83.6378 302.518 84.2744 295.211 84.9201 287.912C85.5613 280.626 86.4754 273.301 86.7209 265.989C86.7657 258.692 85.7188 251.424 83.6105 244.398C81.7915 237.423 79.9226 230.438 78.0035 223.445C74.1837 209.171 70.373 194.896 66.5713 180.621C62.3286 164.632 58.0995 148.617 54.3615 132.514C54.3069 132.411 54.4979 132.386 54.4979 132.475Z"/><path fill="#37474F" d="M43.9661 121.961C43.9661 121.961 59.1908 177.814 69.8864 217.129L90.1997 121.961H43.9661Z"/><path fill="#F7A9A0" d="M94.1969 407.389C91.4684 408.193 11.0882 406.573 8.15512 404.735C7.02281 404.059 11.2246 332.816 11.2246 332.816L61.51 333.735L59.0817 381.396C59.0817 381.396 88.7263 394.539 91.7276 396.875C94.7289 399.21 96.9526 406.598 94.1969 407.389Z"/><path fill="#fff" d="M94.1969 407.389C91.4684 408.18 11.0882 406.572 8.15514 404.748C7.60945 404.416 8.26428 388.389 9.15102 370.97L59.6274 371.366L59.109 381.396C59.109 381.396 88.7536 394.539 91.7549 396.874C94.7562 399.21 96.9526 406.585 94.1969 407.389Z"/><path fill="#FFCF40" d="M94.7835 407.721C91.9732 408.525 10.8973 407.517 7.90962 405.654C6.77731 404.952 7.90962 393.187 7.90962 380.069L59.1772 381.166C59.1772 381.166 89.272 394.641 92.3142 397.015C95.3565 399.388 97.5801 406.917 94.7835 407.721Z"/><path fill="#263238" d="M93.7195 404.722C80.4046 404.084 26.6132 402.732 13.3939 403.063C13.2847 403.063 13.2847 403.127 13.3939 403.14C26.5859 404.033 80.3774 404.977 93.7195 404.926C94.0605 404.926 94.0605 404.735 93.7195 404.722Z"/><path fill="#263238" d="M87.2393 394.208C85.7592 394.136 84.2794 394.354 82.8938 394.846C81.5082 395.338 80.2471 396.094 79.1904 397.066C77.2653 398.796 76.131 401.155 76.0254 403.65C76.0254 403.727 76.1754 403.727 76.1891 403.65C76.6954 401.188 78.0497 398.948 80.0451 397.272C82.0405 395.597 84.5672 394.579 87.2393 394.373C87.2571 394.367 87.2723 394.355 87.283 394.341C87.2937 394.326 87.2994 394.308 87.2994 394.291C87.2994 394.273 87.2937 394.255 87.283 394.24C87.2723 394.226 87.2571 394.214 87.2393 394.208Z"/><path fill="#263238" d="M64.3204 382.532C58.9863 382.327 52.7518 383.948 49.314 387.942C49.1775 388.108 49.4095 388.274 49.5732 388.197C54.2984 386.007 59.2605 384.296 64.3749 383.093C64.4315 383.065 64.478 383.021 64.5085 382.968C64.5389 382.915 64.5521 382.855 64.5463 382.795C64.5405 382.736 64.5159 382.679 64.4757 382.632C64.4356 382.585 64.3816 382.55 64.3204 382.532Z"/><path fill="#263238" d="M68.3995 384.127C63.0654 383.935 56.8309 385.543 53.393 389.55C53.2702 389.703 53.5022 389.882 53.6659 389.805C58.3911 387.615 63.3532 385.904 68.4677 384.701C68.523 384.669 68.5675 384.624 68.596 384.569C68.6245 384.515 68.6359 384.454 68.6287 384.393C68.6216 384.333 68.5962 384.276 68.5556 384.229C68.515 384.182 68.4608 384.146 68.3995 384.127Z"/><path fill="#263238" d="M72.4647 385.734C67.1442 385.53 60.9097 387.151 57.4582 391.145C57.3354 391.298 57.5673 391.477 57.731 391.4C62.4563 389.21 67.4185 387.499 72.5329 386.296C72.5893 386.266 72.6351 386.222 72.6646 386.168C72.694 386.115 72.7059 386.054 72.6986 385.994C72.6913 385.934 72.6652 385.877 72.6236 385.831C72.582 385.785 72.5267 385.751 72.4647 385.734Z"/><path fill="#263238" d="M76.5438 387.33C71.2097 387.138 64.9752 388.746 61.5373 392.753C61.4009 392.906 61.6464 393.085 61.8101 393.008C66.5345 390.816 71.497 389.105 76.612 387.904C76.6673 387.872 76.7119 387.826 76.7404 387.772C76.7689 387.718 76.7803 387.657 76.7731 387.596C76.7659 387.536 76.7406 387.479 76.7 387.432C76.6593 387.385 76.6052 387.349 76.5438 387.33Z"/><path fill="#263238" d="M17.1182 391.362C11.1293 391.234 10.911 399.937 16.8999 400.065C22.8888 400.192 23.1208 391.426 17.1182 391.362Z"/><path fill="#263238" d="M70.4457 369.35C67.8128 367.193 64.3476 369.159 62.6287 371.29C59.7392 375.006 57.9424 379.366 57.4174 383.935C57.4153 383.956 57.4181 383.977 57.4256 383.996C57.433 384.016 57.445 384.033 57.4607 384.048C57.4763 384.063 57.4952 384.074 57.5161 384.081C57.5369 384.088 57.5591 384.09 57.5811 384.088C57.6008 384.183 57.644 384.271 57.7071 384.347C57.7703 384.423 57.8516 384.484 57.9446 384.525C58.0376 384.566 58.1396 384.586 58.2423 384.583C58.3451 384.581 58.4457 384.555 58.5361 384.51C62.3968 382.149 66.8442 380.069 69.8182 376.662C71.5644 374.671 72.9422 371.392 70.4457 369.35ZM63.6246 379.801C61.7556 381.013 59.8321 382.123 58.004 383.399C58.9406 380.907 60.0152 378.462 61.2236 376.075C61.8151 374.925 62.4944 373.816 63.2563 372.757C64.4704 371.136 69.8182 367.091 70.2001 372.527C70.3911 375.526 65.8346 378.359 63.611 379.801H63.6246Z"/><path fill="#263238" d="M44.1161 385.467C48.7409 386.245 53.5702 385.122 58.154 384.573C58.2541 384.554 58.3479 384.513 58.4275 384.453C58.5071 384.393 58.5702 384.316 58.6115 384.229C58.6529 384.141 58.6714 384.046 58.6653 383.95C58.6593 383.855 58.629 383.762 58.5769 383.68C58.594 383.667 58.6079 383.65 58.6173 383.632C58.6268 383.613 58.6317 383.592 58.6317 383.572C58.6317 383.551 58.6268 383.53 58.6173 383.512C58.6079 383.493 58.594 383.476 58.5769 383.463C55.0072 380.307 50.613 378.085 45.8351 377.019C43.0384 376.445 39.014 377.019 38.5365 380.299C38.059 383.578 41.415 384.982 44.1161 385.467ZM40.9784 382.544C37.486 378.18 44.3617 378.002 46.4353 378.499C47.7478 378.841 49.0333 379.267 50.2824 379.775C52.8591 380.854 55.3728 382.059 57.8129 383.387C55.5483 383.527 53.311 383.846 50.9918 384.076C48.3316 384.344 42.902 384.982 40.9784 382.544Z"/><path fill="#263238" d="M90.1724 121.935C90.1724 121.935 88.8082 143.296 83.3513 160.153C82.9011 161.557 82.4373 162.922 81.9871 164.236C77.1675 165.992 72.5282 168.153 68.1265 170.693C68.1265 170.693 64.6887 252.361 64.7569 257.465C64.9752 276.44 61.1008 368.878 61.1008 368.878L7.65039 368.393C7.65039 368.393 14.4715 263.858 14.4715 256.917C14.4715 245.738 25.0579 121.935 25.0579 121.935H90.1724Z"/><path fill="#37474F" d="M79.1631 150.621C79.3405 149.447 79.5315 148.26 79.7361 147.073C80.0908 144.917 80.5547 142.76 80.9639 140.604C81.878 135.716 82.8329 130.804 84.0062 125.955C84.0062 125.928 84.0177 125.902 84.0382 125.882C84.0586 125.863 84.0864 125.853 84.1153 125.853C84.1442 125.853 84.172 125.863 84.1925 125.882C84.213 125.902 84.2245 125.928 84.2245 125.955C84.0198 127.92 83.7879 129.872 83.4878 131.824C83.1876 133.777 82.983 135.729 82.6965 137.682C82.1099 141.51 81.5369 145.427 80.8275 149.268C80.5547 150.748 79.5724 153.415 81.8507 153.875C83.6515 154.232 84.9884 152.599 85.5068 151.182C86.0723 149.439 86.483 147.655 86.7346 145.848C87.103 143.896 87.4304 141.931 87.7305 139.966C88.3717 135.691 89.0948 131.442 89.8178 127.205C89.8178 127.078 90.0497 127.116 90.0497 127.205C89.8996 131.595 89.6541 135.946 89.0402 140.31C88.7401 142.39 88.4126 144.457 88.0306 146.525C87.8064 148.516 87.2923 150.469 86.5027 152.331C86.1782 153.062 85.6619 153.705 85.0014 154.2C84.3409 154.695 83.5575 155.027 82.7238 155.164H82.6283C82.6391 155.183 82.6447 155.205 82.6447 155.227C82.6447 155.25 82.6391 155.271 82.6283 155.291C82.6283 155.98 82.6283 156.682 82.5464 157.371C82.4646 158.06 82.3282 158.737 82.1781 159.413C82.0464 160.101 81.8594 160.78 81.6188 161.442C81.5024 161.764 81.3657 162.079 81.2095 162.386C81.0349 162.683 80.8389 162.969 80.6229 163.241C80.541 163.356 80.391 163.241 80.3773 163.165C80.3705 163.05 80.3705 162.935 80.3773 162.82V162.756C80.3638 162.556 80.3638 162.356 80.3773 162.156C80.3773 161.812 80.5137 161.493 80.582 161.161C80.7457 160.498 80.9366 159.885 81.1276 159.196C81.3186 158.507 81.4687 157.92 81.6461 157.231C81.8234 156.542 82.069 155.955 82.2327 155.227C82.2278 155.217 82.2252 155.207 82.2252 155.195C82.2252 155.184 82.2278 155.174 82.2327 155.164C81.5614 155.192 80.8969 155.028 80.3285 154.692C79.7602 154.357 79.3154 153.867 79.054 153.288C78.8445 152.405 78.8821 151.486 79.1631 150.621Z"/><path fill="#37474F" d="M64.0475 172.314C65.552 171.233 67.1387 170.256 68.795 169.392C70.5513 168.406 72.374 167.528 74.2519 166.763C77.8944 165.283 81.6596 164.275 85.4249 163.113C85.534 163.113 85.6159 163.254 85.5068 163.292C81.8506 164.645 78.3582 166.457 74.8385 168.065C73.0923 168.856 71.3461 169.609 69.5726 170.349C67.7991 171.089 66.0393 171.931 64.2248 172.556C64.2078 172.567 64.1886 172.575 64.1685 172.579C64.1483 172.583 64.1275 172.583 64.1072 172.579C64.0869 172.576 64.0676 172.569 64.0503 172.558C64.0331 172.548 64.0182 172.534 64.0065 172.518C63.9949 172.502 63.9867 172.484 63.9825 172.465C63.9782 172.446 63.978 172.427 63.9818 172.408C63.9856 172.389 63.9934 172.371 64.0046 172.355C64.0159 172.339 64.0305 172.325 64.0475 172.314Z"/><path fill="#37474F" d="M35.4942 142.531C38.0642 142.507 40.6211 142.186 43.1066 141.574C44.2525 141.293 45.3849 140.948 46.5035 140.604C47.6162 140.318 48.6588 139.833 49.573 139.175C51.1512 137.613 52.282 135.703 52.8608 133.624C53.682 131.425 54.3474 129.179 54.8526 126.899C54.8526 126.784 55.0572 126.822 55.0572 126.899C55.1182 129.485 54.7688 132.065 54.0204 134.555C53.5706 136.789 52.4325 138.852 50.7462 140.489C48.726 141.912 46.3 142.742 43.7751 142.875C41.0215 143.173 38.2384 143.139 35.4942 142.773C35.4669 142.765 35.4432 142.748 35.4263 142.727C35.4095 142.705 35.4004 142.679 35.4004 142.652C35.4004 142.625 35.4095 142.599 35.4263 142.577C35.4432 142.555 35.4669 142.539 35.4942 142.531Z"/><path fill="#37474F" d="M18.9189 310.97C19.7829 296.057 20.6924 281.145 21.6473 266.232C23.489 236.551 25.2625 206.869 27.2543 177.214C28.3866 160.472 29.5462 143.73 30.9514 127.014C30.9443 126.993 30.9427 126.97 30.9466 126.949C30.9505 126.927 30.9598 126.906 30.9737 126.889C30.9876 126.871 31.0059 126.857 31.0269 126.847C31.0479 126.837 31.0711 126.832 31.0946 126.832C31.1181 126.832 31.1413 126.837 31.1623 126.847C31.1833 126.857 31.2016 126.871 31.2155 126.889C31.2294 126.906 31.2387 126.927 31.2426 126.949C31.2465 126.97 31.2449 126.993 31.2378 127.014C29.9827 156.861 28.0319 186.682 26.1902 216.504C24.3485 246.325 22.4659 275.853 20.4605 305.522C19.3418 322.251 17.923 338.98 16.8043 355.722C16.8043 355.749 16.7928 355.775 16.7724 355.794C16.7519 355.813 16.7241 355.824 16.6952 355.824C16.6662 355.824 16.6385 355.813 16.618 355.794C16.5975 355.775 16.5861 355.749 16.5861 355.722C17.4455 340.792 18.0594 325.875 18.9189 310.97Z"/><path fill="#37474F" d="M11.4976 359.269C14.4579 359.078 17.4456 359.103 20.4059 359.078C23.3663 359.052 26.3403 359.078 29.3143 359.078C35.2533 359.129 41.1649 359.226 47.0493 359.371C48.6727 359.371 50.2961 359.46 51.9195 359.537C53.543 359.614 55.3847 359.882 57.1173 359.945C57.2537 359.945 57.2537 360.137 57.1173 360.15C55.6576 360.15 54.1978 360.354 52.7381 360.392C51.2784 360.43 49.7095 360.392 48.2089 360.392C45.2349 360.392 42.2745 360.392 39.3005 360.392C33.3661 360.392 27.4317 360.264 21.5655 360.035C18.2096 359.907 14.8263 359.869 11.4976 359.563C11.4638 359.553 11.4341 359.534 11.4131 359.507C11.392 359.481 11.3806 359.449 11.3806 359.416C11.3806 359.383 11.392 359.351 11.4131 359.324C11.4341 359.298 11.4638 359.278 11.4976 359.269Z"/><path fill="#263238" d="M87.9078 15.1545C82.9556 10.0503 76.3119 7.1281 68.0992 8.65937C59.8866 10.1906 51.9741 14.5037 51.0737 26.7666C50.3506 36.7199 51.9195 45.9075 51.8786 56.9709C51.8376 68.0343 37.8816 95.2527 60.405 108.268C80.6364 119.983 121.604 108.83 122.832 84.4189C123.801 65.0611 98.0985 47.3495 95.3701 39.7569C92.6416 32.1644 93.351 20.8074 87.9078 15.1545Z"/><path fill="#263238" d="M91.755 24.5208C91.7394 30.1552 93.0383 35.725 95.5612 40.8415C96.2757 42.1759 97.1949 43.4054 98.2897 44.4911C99.3538 45.5885 100.472 46.6349 101.591 47.6685C103.856 49.7229 106.093 51.7519 108.208 53.8701C112.444 57.9379 115.986 62.5902 118.712 67.6643C121.258 72.667 122.653 78.1143 122.805 83.6533C123.082 80.8759 122.991 78.077 122.532 75.3206C122.018 72.545 121.162 69.8344 119.981 67.2432C117.459 61.9263 113.948 57.0701 109.613 52.9003C107.457 50.7565 105.152 48.7148 102.873 46.6859C100.536 44.8551 98.5072 42.704 96.8572 40.3056C95.4176 37.8947 94.3128 35.3218 93.5695 32.6493C92.7596 29.9834 92.1533 27.267 91.755 24.5208Z"/><path fill="#263238" d="M51.0191 33.5553C51.1419 39.2848 51.5648 45.0398 51.3056 50.6927C51.2041 53.5402 50.8757 56.3766 50.3233 59.1785C49.6211 61.9994 48.7651 64.7848 47.7586 67.5239C46.8582 70.344 46.0397 73.1768 45.4258 76.048C44.8427 78.9114 44.5776 81.8235 44.6345 84.7379C44.7805 87.6681 45.4539 90.5542 46.6263 93.2748C48.0641 96.0558 50.1419 98.5048 52.7108 100.446C50.4718 98.3305 48.7293 95.801 47.5949 93.0196C46.6475 90.3324 46.1864 87.5161 46.2307 84.6869C46.5854 78.9513 47.7789 73.2882 49.7777 67.8557C50.776 65.0646 51.605 62.223 52.2605 59.3444C52.7592 56.4766 52.9739 53.5719 52.9017 50.6672C52.7261 44.9276 52.0968 39.208 51.0191 33.5553Z"/><path fill="#F7A9A0" d="M69.9547 73.6235C74.7977 84.8783 94.0469 121.233 106.693 123.798C114.988 125.482 148.493 122.445 154.264 115.032C156.788 111.79 152.531 89.2552 148.07 90.1484C143.609 91.0417 116.693 94.3722 113.419 93.4789C110.145 92.5857 85.3841 65.9671 76.1483 59.3189C60.2141 47.9237 67.349 67.575 69.9547 73.6235Z"/><path fill="#455A64" d="M99.2855 79.1871L78.2082 90.8503C78.2082 90.8503 69.3544 75.0527 65.9302 64.7294C62.506 54.406 65.4527 49.6719 78.2082 59.9441C85.6454 65.952 92.6842 72.3783 99.2855 79.1871Z"/><path fill="#263238" d="M77.3078 86.7924C80.0362 84.8911 82.9557 83.0663 85.8342 81.3054C87.1984 80.4377 88.6717 79.5444 90.1178 78.7533C91.5639 77.9621 93.1601 77.1071 94.6471 76.2011C94.7562 76.2011 94.8653 76.2777 94.7698 76.3415C93.4056 77.2347 92.0414 78.2173 90.6772 79.1233C89.3129 80.0293 87.7441 80.9225 86.2843 81.8158C83.3922 83.5938 80.45 85.2952 77.4578 86.92C77.3214 86.9583 77.2259 86.8435 77.3078 86.7924Z"/><path fill="#455A64" d="M98.1531 136.24L93.392 111.114C93.392 111.114 100.718 99.1574 96.4615 90.5823C94.3197 86.2309 75.5207 59.204 67.5945 53.8318C60.1731 48.7276 49.3957 54.1891 45.3713 58.1321C29.9419 73.3555 25.8492 101.454 20.2559 142.62L98.1531 136.24Z"/><path fill="#263238" d="M97.7848 93.0706C97.1921 91.2621 96.3236 89.543 95.2064 87.9664C94.838 87.3794 94.0059 86.1544 93.01 84.7252C92.7384 84.0366 92.4241 83.3634 92.0687 82.709C91.4842 81.7454 90.9559 80.7529 90.4862 79.7358C90.4862 79.6337 90.2679 79.7358 90.3361 79.7996C90.847 80.776 91.3024 81.777 91.7003 82.7984C90.0223 80.4121 88.2625 77.9621 87.5122 76.954C87.444 76.8774 87.2939 76.954 87.3621 77.0433C88.9719 79.0085 94.1832 87.6474 95.5474 89.8039C96.7875 91.9692 97.4255 94.3914 97.4028 96.8477C97.3743 99.3875 97.0216 101.915 96.3523 104.376C96.2841 104.581 96.5024 104.683 96.5979 104.491C97.372 102.699 97.8726 100.813 98.0849 98.8894C98.3497 96.9483 98.2481 94.9788 97.7848 93.0706Z"/><path fill="#F7A9A0" d="M53.9386 62.6111C50.0506 73.2279 28.3457 111.956 28.2093 114.062C28.2093 114.062 1.97525 122.93 0.0789722 109.213C-1.8173 95.4951 30.9378 72.4368 44.3618 59.9952C49.846 54.9165 57.1036 53.9467 53.9386 62.6111Z"/><path fill="#455A64" d="M39.4915 92.892L21.2245 77.5793C21.2245 77.5793 34.6485 64.8952 44.1162 58.6808C53.5839 52.4664 59.3137 53.6915 52.6836 68.1364C48.8286 76.6316 44.423 84.8988 39.4915 92.892Z"/><path fill="#263238" d="M25.1397 75.6014C27.9227 77.5155 30.6512 79.4933 33.3251 81.535C34.6893 82.5431 35.9717 83.5385 37.2677 84.5721C38.5637 85.6057 39.8734 86.7796 41.2103 87.8515C41.2202 87.8591 41.2283 87.8683 41.2344 87.8788C41.2404 87.8893 41.2441 87.9008 41.2454 87.9127C41.2467 87.9245 41.2454 87.9365 41.2418 87.9479C41.2381 87.9593 41.232 87.9699 41.224 87.9791C41.2159 87.9884 41.206 87.996 41.1948 88.0016C41.1835 88.0073 41.1713 88.0108 41.1586 88.0119C41.1459 88.0131 41.1331 88.012 41.1209 88.0085C41.1087 88.0051 41.0974 87.9994 41.0875 87.9919C39.7233 87.0093 38.3591 86.1161 36.9949 85.1335C35.6306 84.151 34.2664 83.0791 32.9022 82.0327C30.2283 79.991 27.609 77.8642 25.0442 75.6524C24.976 75.6524 25.0578 75.5376 25.1397 75.6014Z"/><path fill="#263238" d="M39.4915 92.9813C41.0194 89.9187 42.9839 87.0604 44.7165 84.0489C46.449 81.0374 48.1407 78.0514 49.7368 75.0144C49.7368 74.9378 49.9005 75.0144 49.8596 75.0144C49.1502 76.5584 48.4954 78.1407 47.7178 79.672C47.3358 80.4249 46.9265 81.1777 46.5172 81.9306C46.7491 81.6626 46.9538 81.3947 47.1993 81.1395C47.8951 80.3738 48.6591 79.6592 49.4367 78.9574C49.4367 78.9574 49.5322 78.9574 49.5049 79.0212C48.8831 79.854 48.2136 80.6549 47.4995 81.4202C46.9947 81.9689 46.449 82.4921 45.9034 83.0153C45.6714 83.4491 45.4259 83.883 45.1803 84.2913C43.6506 87.3306 41.8239 90.231 39.7234 92.9557C39.6279 93.1471 39.4915 93.0834 39.4915 92.9813Z"/><path fill="#FFCF40" d="M46.7219 56.0522C46.7219 56.0522 47.9088 99.7444 47.6905 102.564C47.4723 105.385 19.7239 128.596 19.7239 128.596V131.569L30.7468 128.66C30.7468 128.66 25.4673 229.035 24.3895 233.896C23.3118 238.758 21.4428 260.209 21.4428 260.209C21.4428 260.209 71.1825 271.693 100.036 265.185C114.565 261.919 132.354 249.605 132.354 249.605L94.1561 110.948C94.1561 110.948 99.7085 101.174 97.7849 93.0834C95.8613 84.9932 69.1362 52.9896 69.1362 52.9896L66.053 51.8029L78.9449 74.7719C78.9449 74.7719 67.2944 79.5699 55.5212 78.6001L51.4285 53.2831L46.7219 56.0522Z"/><path fill="#000" d="M38.7275 209.268C38.7275 209.268 50.8009 211.08 55.0982 211.004C60.042 210.546 64.9559 209.839 69.8182 208.886C69.8182 208.886 71.8372 234.828 71.6462 235.389C71.4552 235.951 55.5347 241.77 53.0791 241.884C50.6235 241.999 38.1272 235.44 38.1272 235.44L38.7275 209.268Z" opacity=".1"/><path fill="#263238" d="M67.5126 107.299C71.572 106.954 75.653 106.89 79.7225 107.107C81.7552 107.235 83.7469 107.465 85.7524 107.72C86.7619 107.847 87.7578 107.949 88.7536 108.052C89.8051 108.166 90.8672 108.166 91.9187 108.052C92.0142 108.052 92.0278 108.166 91.9187 108.192C90.9426 108.398 89.954 108.547 88.9583 108.639C87.9955 108.702 87.029 108.702 86.0662 108.639C84.0062 108.524 81.9735 108.32 79.9135 108.179C75.8208 107.898 71.6462 107.63 67.499 107.63C67.3353 107.618 67.3217 107.311 67.5126 107.299Z"/><path fill="#263238" d="M58.2905 112.288C61.5191 111.405 64.7985 110.694 68.113 110.157C69.7637 109.889 71.4281 109.723 73.1061 109.596C73.9109 109.532 74.7022 109.481 75.5071 109.442C76.312 109.404 77.2806 109.442 78.2355 109.442C78.331 109.442 78.3447 109.57 78.2355 109.583C77.4033 109.659 76.5848 109.864 75.7526 109.978L73.2698 110.336C71.619 110.578 69.9683 110.846 68.304 111.076C64.9752 111.522 61.6738 112.007 58.3724 112.582C58.1541 112.569 58.1268 112.326 58.2905 112.288Z"/><path fill="#F7A9A0" d="M54.0204 52.7344C54.3205 53.9212 63.57 61.4627 69.4089 61.2202C71.3052 61.1436 68.0447 51.637 68.0447 51.637L68.2084 50.9224L70.6231 40.9181L58.0585 33.3511L56.2441 32.343C56.2441 32.343 55.7803 35.1248 55.2346 38.5957L55.1527 39.0806C55.1527 39.2847 55.0845 39.4634 55.0572 39.642C54.9617 40.1652 54.8799 40.6884 54.798 41.2244C54.7162 41.7603 54.6889 42.0155 54.6343 42.4366C54.5798 42.8577 54.5388 43.2661 54.4706 43.7127C54.1098 46.7075 53.9594 49.7212 54.0204 52.7344Z"/><path fill="#263238" d="M55.2482 38.5957C56.3233 41.4087 58.0409 43.9687 60.2815 46.0976C62.5221 48.2264 65.2318 49.8729 68.2219 50.9224L70.6366 40.9181L58.0721 33.3511L56.2577 32.343C56.2577 32.343 55.8621 35.1248 55.2482 38.5957Z"/><path fill="#F7A9A0" d="M87.1438 28.3617C85.7114 46.3158 74.0472 47.5026 69.9136 47.2474C66.1484 46.9794 53.3929 45.6268 52.8335 27.6216C52.2742 9.61639 61.6601 4.5632 70.2956 4.75461C78.9312 4.94602 88.6035 10.3948 87.1438 28.3617Z"/><path fill="#263238" d="M53.3384 26.4093C57.8676 27.1367 58.9863 20.4501 58.9863 20.4501C58.9863 20.4501 64.1977 20.7947 65.9166 13.1001C66.6479 14.8075 67.7921 16.3332 69.2597 17.5575C70.7272 18.7819 72.478 19.6715 74.3748 20.1567C75.8209 20.5905 71.4963 16.2647 71.4963 16.2647C71.4963 16.2647 76.5439 22.1728 87.867 21.9431C88.6719 21.9431 88.8901 10.8287 80.9094 5.82651C72.9287 0.824356 64.7979 1.74313 58.5907 6.01793C56.946 6.53604 55.4631 7.42536 54.2734 8.60721C53.0836 9.78907 52.2237 11.227 51.7696 12.7938C50.0506 18.3064 51.5786 26.1414 53.3384 26.4093Z"/><path fill="#F7A9A0" d="M56.0805 28.0044C56.0805 28.0044 52.8882 21.8283 49.9551 22.8109C47.022 23.7934 48.7546 32.292 51.715 33.8743C52.08 34.1024 52.4908 34.2588 52.9223 34.3342C53.3539 34.4096 53.7973 34.4024 54.2257 34.3129C54.6542 34.2234 55.0588 34.0536 55.4152 33.8138C55.7715 33.5739 56.0721 33.2689 56.2988 32.9172L56.0805 28.0044Z"/><path fill="#263238" d="M50.5143 25.2354C50.5143 25.2354 50.4461 25.2354 50.5143 25.3119C51.4503 25.9393 52.2342 26.7444 52.8149 27.6745C53.3955 28.6046 53.7598 29.6388 53.884 30.7096C53.7917 30.4834 53.6484 30.2785 53.4637 30.1088C53.2791 29.9391 53.0575 29.8087 52.8141 29.7263C52.5707 29.644 52.3112 29.6117 52.0532 29.6316C51.7952 29.6516 51.5449 29.7233 51.3193 29.8419C51.3012 29.8419 51.2838 29.8487 51.271 29.8606C51.2582 29.8726 51.251 29.8888 51.251 29.9057C51.251 29.9227 51.2582 29.9389 51.271 29.9509C51.2838 29.9628 51.3012 29.9695 51.3193 29.9695C51.7276 29.9132 52.1445 29.9762 52.5132 30.1497C52.8819 30.3233 53.1843 30.5991 53.3792 30.9393C53.6936 31.5183 53.945 32.1254 54.1296 32.7513C54.1978 32.9427 54.5798 32.9045 54.5388 32.6748C55.0573 29.9951 53.502 25.9627 50.5143 25.2354Z"/><path fill="#263238" d="M83.7742 24.827C83.3513 24.7114 82.9367 24.5707 82.5328 24.4059C82.0681 24.3173 81.6495 24.0833 81.3459 23.7424C81.2721 23.6211 81.2429 23.4806 81.2626 23.3423C81.2823 23.2041 81.3499 23.0756 81.4551 22.9767C81.7005 22.8092 81.9896 22.7065 82.2921 22.6796C82.5945 22.6526 82.8992 22.7024 83.174 22.8236C83.7706 22.9854 84.2814 23.3493 84.6064 23.8445C84.6707 23.9621 84.6974 24.0945 84.6835 24.2259C84.6696 24.3574 84.6155 24.4823 84.5278 24.5858C84.4402 24.6893 84.3225 24.7671 84.1889 24.8099C84.0553 24.8526 83.9114 24.8586 83.7742 24.827Z"/><path fill="#263238" d="M71.4962 23.1043C71.9464 23.1043 72.3693 23.1043 72.8604 23.0278C73.3418 23.0604 73.8212 22.9438 74.2247 22.696C74.3341 22.5995 74.4047 22.4707 74.4245 22.3313C74.4444 22.1919 74.4124 22.0503 74.3338 21.9304C74.1498 21.7062 73.904 21.5332 73.6228 21.4298C73.3416 21.3264 73.0356 21.2965 72.7376 21.3434C72.1174 21.3379 71.5179 21.5522 71.0597 21.9431C70.965 22.0351 70.8995 22.1498 70.8706 22.2746C70.8416 22.3993 70.8502 22.5291 70.8955 22.6495C70.9408 22.7699 71.0209 22.8762 71.1269 22.9565C71.233 23.0368 71.3608 23.088 71.4962 23.1043Z"/><path fill="#263238" d="M73.5971 27.9789C73.5971 27.9789 73.488 27.9789 73.488 28.0682C73.3788 29.3443 73.0241 30.6203 71.7963 30.9521V31.0287C73.2014 30.9904 73.5971 29.1529 73.5971 27.9789Z"/><path fill="#263238" d="M72.5329 26.5752C70.4593 26.1924 69.8044 30.1099 71.7144 30.4034C73.6243 30.6969 74.2791 26.8942 72.5329 26.5752Z"/><path fill="#263238" d="M71.6735 26.6645C71.2779 26.8304 70.855 27.1622 70.4048 27.1495C69.9546 27.1367 69.5726 26.6518 69.2998 26.2052H69.2315C69.1013 26.5525 69.1195 26.9335 69.2821 27.2687C69.4448 27.6038 69.7394 27.8674 70.1047 28.0044C70.8686 28.2213 71.5507 27.6343 71.8782 26.9198C71.9327 26.8177 71.8372 26.6007 71.6735 26.6645Z"/><path fill="#263238" d="M80.5956 28.9614C80.5956 28.9614 80.6774 28.9614 80.6774 29.0763C80.4182 30.2885 80.3364 31.705 81.4414 32.2792C81.4414 32.2792 81.4414 32.3685 81.4414 32.3558C80.0226 31.9347 80.1454 30.0461 80.5956 28.9614Z"/><path fill="#263238" d="M81.9735 27.8641C84.0745 28.0299 83.5424 31.9602 81.5915 31.8071C79.6406 31.6539 80.2 27.6854 81.9735 27.8641Z"/><path fill="#263238" d="M82.8056 28.2214C83.1194 28.4638 83.3922 28.8849 83.7879 28.9615C84.1835 29.038 84.6337 28.6552 84.9884 28.2852C84.9066 29.038 84.5382 29.7781 83.747 29.8419C82.9557 29.9057 82.601 29.1784 82.5055 28.4128C82.5464 28.3235 82.6828 28.1193 82.8056 28.2214Z"/><path fill="#263238" d="M71.9327 37.7662C72.1782 38.098 72.4102 38.5446 72.8604 38.6722C73.3362 38.7744 73.8306 38.7744 74.3065 38.6722C74.3065 38.6722 74.3883 38.6722 74.3065 38.7488C74.0705 38.9488 73.7816 39.0862 73.4698 39.1468C73.158 39.2074 72.8346 39.1889 72.533 39.0933C72.2846 38.9746 72.0787 38.7906 71.9405 38.5639C71.8024 38.3372 71.738 38.0777 71.7553 37.8173C71.7962 37.7152 71.9054 37.7152 71.9327 37.7662Z"/><path fill="#263238" d="M78.0446 34.0657C78.0446 34.0657 78.0445 35.916 77.8945 36.7709C77.8945 36.8475 77.6626 36.8602 77.3488 36.8347C76.5432 36.8626 75.745 36.682 75.0421 36.3128C74.3393 35.9435 73.759 35.4 73.3652 34.742C73.3652 34.6527 73.4471 34.5761 73.5153 34.6399C74.5647 35.5469 75.9002 36.1111 77.3215 36.2477C77.417 36.0181 77.2397 33.0831 77.3215 33.0959C78.022 33.2466 78.6968 33.487 79.3269 33.8105C79.477 29.9823 78.9722 26.1541 79.1769 22.3259C79.1858 22.3004 79.2032 22.2782 79.2265 22.2624C79.2498 22.2467 79.2777 22.2382 79.3065 22.2382C79.3352 22.2382 79.3632 22.2467 79.3865 22.2624C79.4098 22.2782 79.4271 22.3004 79.4361 22.3259C80.1114 26.4325 80.3536 30.5911 80.1591 34.742C80.1727 35.2141 78.3856 34.3081 78.0446 34.0657Z"/><path fill="#263238" d="M76.803 36.3371C76.2475 36.8914 75.5468 37.3005 74.7703 37.5238C74.349 37.6507 73.8957 37.6507 73.4743 37.5238C72.5739 37.2048 72.6285 36.4136 72.8741 35.7373C73.0112 35.384 73.1896 35.0459 73.4061 34.7292C74.3259 35.5905 75.5163 36.1539 76.803 36.3371Z"/><path fill="#FF9CBD" d="M74.7702 37.5238C74.3489 37.6507 73.8956 37.6507 73.4743 37.5238C72.5739 37.2048 72.6285 36.4136 72.8741 35.7373C73.3572 35.7962 73.8057 36.0036 74.1489 36.3271C74.4922 36.6505 74.7108 37.0715 74.7702 37.5238Z"/><path fill="#FFCF40" d="M86.8437 10.5862C84.6336 10.0886 72.3147 10.4331 66.7896 12.6534C61.2644 14.8738 51.4284 22.326 50.9236 22.7088C50.4188 23.0916 47.895 4.1166 64.3476 0.658487C82.2735 -3.11864 86.8437 10.5862 86.8437 10.5862Z"/><path fill="#FFCF40" d="M51.8787 21.9431C51.8787 21.9431 62.7925 8.519 68.7951 5.4437C74.7977 2.3684 88.3854 0.645717 96.7481 4.16764C103.283 6.84736 87.3485 14.7079 87.3485 14.7079C87.1963 14.0638 86.8868 13.4613 86.4443 12.9477C86.0017 12.4341 85.438 12.0233 84.7974 11.7474C80.7048 10.2417 72.9833 11.4029 68.5768 12.7938C63.0244 14.4782 51.8787 21.9431 51.8787 21.9431Z"/><path fill="#000" d="M51.8787 21.9431C51.8787 21.9431 62.7925 8.519 68.7951 5.4437C74.7977 2.3684 88.3854 0.645717 96.7481 4.16764C103.283 6.84736 87.3485 14.7079 87.3485 14.7079C87.1963 14.0638 86.8868 13.4613 86.4443 12.9477C86.0017 12.4341 85.438 12.0233 84.7974 11.7474C80.7048 10.2417 72.9833 11.4029 68.5768 12.7938C63.0244 14.4782 51.8787 21.9431 51.8787 21.9431Z" opacity=".2"/><path fill="#455A64" d="M68.0584 51.6242L65.4664 59.8548L53.9114 50.7565L51.2511 54.2401C51.2511 54.2401 63.1745 69.2593 63.1608 68.532L65.9711 61.3861L71.4281 65.6991L69.8046 53.7935L68.0584 51.6242Z"/><path fill="#263238" d="M71.0461 59.7782C70.705 57.8131 70.4185 55.8352 69.9956 53.8956C69.9956 53.8956 69.8592 53.8063 69.8455 53.8956C69.6136 55.8352 70.9506 63.3002 71.1279 65.1122C70.896 64.9335 66.0257 61.3478 65.9984 61.4116C65.3436 62.5728 63.27 67.7919 63.1609 68.2385C61.2782 65.8523 54.0887 57.2006 51.9196 54.9803C51.9196 54.9165 51.7559 54.9803 51.7969 55.0696C53.5158 57.6217 63.0381 69.2721 63.1609 69.2211C64.2705 66.751 65.2449 64.2296 66.0803 61.6668C67.8909 63.3229 69.8238 64.858 71.8646 66.2606C71.7157 64.0877 71.4425 61.9238 71.0461 59.7782Z"/><path fill="#A6A6A6" d="M62.0558 73.7C62.0558 73.7 57.813 68.3916 61.9194 65.9799C66.0257 63.5681 69.2999 69.4508 69.2999 69.4508L62.0558 73.7Z"/><path fill="#A6A6A6" d="M95.6567 108.702L96.2024 115.159L96.3933 117.303L94.4016 116.218L88.4126 112.952L61.9193 73.4831L69.1634 69.2211L95.6567 108.702Z"/><path fill="#37474F" d="M96.2024 115.172L96.3934 117.316L94.4016 116.231L96.2024 115.172Z"/><path fill="#263238" d="M69.6224 68.6188L61.1658 73.5866L62.2178 75.1535L70.6745 70.1857L69.6224 68.6188Z"/><path fill="#263238" d="M70.7726 70.3665L62.3159 75.3343L63.368 76.9012L71.8247 71.9334L70.7726 70.3665Z"/><path fill="#263238" d="M63.379 76.9285L66.1075 75.3334L74.1836 90.493L73.1469 91.0289L63.379 76.9285Z"/><path fill="#F7A9A0" d="M97.7576 86.0523C97.6621 89.8805 87.676 88.8468 87.676 88.8468C89.0973 89.7648 90.1302 91.1192 90.5954 92.675C91.2775 95.4951 86.8438 97.7792 86.8438 97.7792C88.1102 99.0444 88.9418 100.636 89.2312 102.348C89.5859 105.104 85.4523 107.937 85.4523 107.937C85.9383 109.699 85.7251 111.567 84.8521 113.194C82.3419 117.456 74.3475 117.341 69.3681 118.183C64.0476 119.077 54.7436 119.383 51.2921 119.842L44.8666 88.2216C44.8666 88.2216 66.6942 76.8902 72.6422 77.324C77.6898 77.6813 97.894 80.2462 97.7576 86.0523Z"/><path fill="#263238" d="M87.594 88.732C82.2587 87.3364 76.761 86.5565 71.2233 86.4096C71.198 86.4096 71.1737 86.419 71.1558 86.4357C71.1379 86.4525 71.1278 86.4752 71.1278 86.4989C71.1278 86.5226 71.1379 86.5453 71.1558 86.5621C71.1737 86.5788 71.198 86.5882 71.2233 86.5882C76.6802 86.8562 82.1371 88.5023 87.594 88.9745C87.6213 88.9661 87.6451 88.9498 87.6619 88.9281C87.6788 88.9063 87.6878 88.8801 87.6878 88.8532C87.6878 88.8264 87.6788 88.8002 87.6619 88.7784C87.6451 88.7566 87.6213 88.7404 87.594 88.732Z"/><path fill="#263238" d="M86.7073 97.3837C85.4759 97.1326 84.2145 97.034 82.9557 97.0902C81.5914 97.0902 80.2272 97.0902 78.9449 97.0902C76.2801 97.0902 73.6107 97.1965 70.9369 97.4092C70.8277 97.4092 70.8004 97.5878 70.9369 97.5878C73.5971 97.5878 76.2573 97.5878 78.9176 97.5878L82.9147 97.7155C84.1703 97.8494 85.4381 97.8494 86.6937 97.7155C86.7297 97.7035 86.7611 97.6818 86.7838 97.653C86.8064 97.6241 86.8193 97.5896 86.8208 97.5539C86.8223 97.5181 86.8122 97.4828 86.792 97.4525C86.7718 97.4221 86.7422 97.3982 86.7073 97.3837Z"/><path fill="#263238" d="M85.3431 107.937C84.2251 107.724 83.0766 107.689 81.9462 107.835L78.3038 107.949C75.8618 107.949 73.4335 108.077 70.9915 108.064C70.9662 108.064 70.9419 108.074 70.924 108.09C70.9061 108.107 70.896 108.13 70.896 108.154C70.896 108.177 70.9061 108.2 70.924 108.217C70.9419 108.234 70.9662 108.243 70.9915 108.243C73.4607 108.243 75.93 108.332 78.4129 108.332C79.627 108.332 80.8412 108.332 82.0554 108.332C83.1649 108.419 84.2822 108.324 85.3568 108.052L85.3431 107.937Z"/><path fill="#F7A9A0" d="M45.944 87.6601C49.6002 87.1369 60.132 118.656 54.7433 119.421C31.1967 122.79 13.2162 120.302 8.6324 118.796C1.87948 116.55 -0.91719 110.629 0.296972 106.737C2.12504 101.059 42.3152 88.145 45.944 87.6601Z"/><path fill="#263238" d="M37.2951 89.8677C31.65 91.3063 26.2559 93.4981 21.2791 96.3756C21.1836 96.4522 21.2791 96.6053 21.3746 96.5542C24.8533 94.8826 34.7985 91.5649 37.4042 90.5695C38.1955 90.2122 38.9321 89.4339 37.2951 89.8677Z"/><path fill="#EBEBEB" d="M132 125.853L89.8995 126.695L108.398 75.7928L150.498 74.9506L132 125.853Z"/><path fill="#37474F" d="M134.878 125.789L92.7781 126.631L111.277 75.729L153.377 74.8868L134.878 125.789Z"/><path fill="#C7C7C7" d="M115.752 75.6524C115.482 76.5391 114.85 77.2909 113.992 77.7451C113.596 77.9493 113.487 77.4644 113.869 77.2602C114.408 76.9695 114.83 76.5211 115.07 75.9842C115.103 75.8923 115.13 75.7986 115.151 75.7034C115.252 75.3871 115.252 75.05 115.151 74.7336C115.118 74.5974 115.037 74.4759 114.919 74.3891H114.838C114.739 74.3709 114.637 74.3709 114.538 74.3891C114.357 74.4581 114.194 74.5625 114.06 74.6954C113.899 74.8539 113.766 75.0346 113.664 75.2313C113.593 75.3244 113.529 75.4226 113.473 75.5248V75.5886V75.6907V75.7545H112.873C113.011 75.4046 113.199 75.074 113.433 74.7719C113.604 74.5069 113.837 74.2803 114.112 74.1084C114.388 73.9364 114.701 73.8231 115.029 73.7766C115.265 73.7723 115.494 73.8512 115.671 73.9978C115.848 74.1444 115.96 74.3478 115.984 74.5678C116 74.9414 115.92 75.3133 115.752 75.6524Z"/><path fill="#C7C7C7" d="M119.053 75.5759C118.786 76.4639 118.153 77.2165 117.293 77.6686C116.898 77.8855 116.775 77.4006 117.17 77.1965C117.71 76.9097 118.128 76.4596 118.357 75.9204C118.395 75.8288 118.427 75.735 118.453 75.6397C118.541 75.3259 118.541 74.9963 118.453 74.6826C118.414 74.5454 118.328 74.4242 118.207 74.3381H118.125C118.032 74.3136 117.933 74.3136 117.839 74.3381C117.654 74.3992 117.489 74.5048 117.361 74.6443C117.135 74.9007 116.939 75.1787 116.775 75.4738V75.5376C116.763 75.5708 116.763 75.6065 116.775 75.6397H116.175C116.313 75.2925 116.496 74.9624 116.72 74.6571C116.895 74.3943 117.128 74.1695 117.403 73.9978C117.678 73.8262 117.99 73.7116 118.316 73.6618C118.554 73.6544 118.785 73.7323 118.962 73.8794C119.14 74.0266 119.251 74.2318 119.271 74.4529C119.302 74.8385 119.227 75.225 119.053 75.5759Z"/><path fill="#C7C7C7" d="M122.341 75.5121C122.211 75.9529 121.989 76.3652 121.687 76.7245C121.384 77.0839 121.009 77.3832 120.581 77.6048C120.185 77.8217 120.076 77.3241 120.458 77.1327C120.995 76.8397 121.416 76.392 121.659 75.8566C121.692 75.7647 121.72 75.671 121.741 75.5759C121.842 75.2639 121.842 74.9308 121.741 74.6188C121.708 74.4826 121.626 74.361 121.509 74.2743H121.345C121.248 74.2432 121.142 74.2432 121.045 74.2743C120.864 74.3432 120.701 74.4477 120.567 74.5805C120.41 74.74 120.273 74.9155 120.158 75.1037C120.09 75.2058 120.049 75.3079 119.981 75.41C119.976 75.4438 119.976 75.4782 119.981 75.5121C119.981 75.5121 119.981 75.5121 119.981 75.5759H119.38C119.515 75.2246 119.703 74.8936 119.94 74.5933C120.11 74.3297 120.34 74.1041 120.614 73.9322C120.887 73.7603 121.197 73.6462 121.522 73.598C121.762 73.5872 121.996 73.6636 122.177 73.8111C122.358 73.9586 122.47 74.1657 122.491 74.3891C122.542 74.7693 122.49 75.1553 122.341 75.5121Z"/><path fill="#C7C7C7" d="M125.642 75.4482C125.375 76.3362 124.742 77.0889 123.882 77.541C123.487 77.7579 123.364 77.2602 123.76 77.0688C124.299 76.782 124.718 76.3319 124.947 75.7928C124.985 75.7011 125.016 75.6073 125.042 75.512C125.13 75.1983 125.13 74.8687 125.042 74.555C125.007 74.4165 124.92 74.2944 124.797 74.2104H124.66C124.567 74.1793 124.466 74.1793 124.374 74.2104C124.188 74.2716 124.024 74.3772 123.896 74.5167C123.732 74.6704 123.594 74.8469 123.487 75.0399C123.42 75.1333 123.36 75.2314 123.309 75.3334V75.4099C123.296 75.4428 123.296 75.4792 123.309 75.512C123.309 75.512 123.309 75.512 123.309 75.5758H122.709C122.845 75.2274 123.028 74.8971 123.255 74.5932C123.43 74.3304 123.663 74.1057 123.938 73.934C124.213 73.7623 124.525 73.6477 124.851 73.5979C125.089 73.5873 125.322 73.6641 125.501 73.8119C125.679 73.9597 125.789 74.1668 125.806 74.3891C125.842 74.7493 125.786 75.1123 125.642 75.4482Z"/><path fill="#C7C7C7" d="M128.93 75.3845C128.801 75.8253 128.578 76.2375 128.276 76.5969C127.974 76.9563 127.598 77.2556 127.17 77.4772C126.775 77.6814 126.665 77.1964 127.047 77.005C127.584 76.7121 128.006 76.2644 128.248 75.729C128.282 75.6371 128.309 75.5433 128.33 75.4482C128.431 75.1363 128.431 74.8032 128.33 74.4912C128.3 74.3537 128.218 74.2312 128.098 74.1467H128.016C127.919 74.1156 127.813 74.1156 127.716 74.1467C127.537 74.2138 127.375 74.3136 127.238 74.4402C127.081 74.604 126.944 74.7838 126.829 74.9761C126.761 75.0654 126.72 75.1675 126.652 75.2696V75.3462C126.647 75.3758 126.647 75.4059 126.652 75.4355C126.646 75.4607 126.646 75.4868 126.652 75.512H126.052C126.186 75.1608 126.374 74.8298 126.611 74.5295C126.781 74.2659 127.011 74.0403 127.285 73.8684C127.558 73.6965 127.868 73.5824 128.193 73.5342C128.431 73.5232 128.663 73.5978 128.844 73.7427C129.024 73.8875 129.138 74.0915 129.162 74.3125C129.176 74.6819 129.096 75.0492 128.93 75.3845Z"/><path fill="#C7C7C7" d="M132.259 75.3206C131.984 76.2049 131.353 76.955 130.499 77.4134C130.103 77.6176 129.981 77.1326 130.376 76.9285C130.915 76.6417 131.334 76.1916 131.563 75.6524C131.601 75.5608 131.633 75.467 131.659 75.3717C131.746 75.0536 131.746 74.7199 131.659 74.4019C131.623 74.2667 131.536 74.1484 131.413 74.0701H131.331C131.237 74.0463 131.138 74.0463 131.045 74.0701C130.858 74.1215 130.692 74.2237 130.567 74.3636C130.406 74.5242 130.268 74.7045 130.158 74.8995C130.091 74.993 130.032 75.0911 129.981 75.193V75.2951C129.981 75.2951 129.981 75.2951 129.981 75.3717H129.38C129.515 75.0192 129.699 74.6846 129.926 74.3764C130.102 74.1154 130.335 73.8926 130.61 73.7231C130.885 73.5536 131.196 73.4413 131.522 73.3938C131.758 73.3831 131.989 73.4581 132.167 73.6032C132.345 73.7483 132.456 73.9522 132.477 74.1722C132.509 74.5661 132.434 74.9613 132.259 75.3206Z"/><path fill="#C7C7C7" d="M135.519 75.2568C135.249 76.1436 134.617 76.8953 133.759 77.3496C133.364 77.5537 133.255 77.0688 133.637 76.8647C134.176 76.5739 134.597 76.1255 134.837 75.5886C134.871 75.4967 134.898 75.403 134.919 75.3079C135.02 74.9915 135.02 74.6545 134.919 74.3381C134.88 74.2009 134.794 74.0796 134.673 73.9935H134.592C134.493 73.9698 134.39 73.9698 134.291 73.9935C134.108 74.0511 133.943 74.1522 133.814 74.287C133.653 74.4484 133.516 74.6285 133.405 74.823C133.336 74.9123 133.296 75.0144 133.227 75.1165V75.1803V75.2824V75.3462H132.627C132.765 74.9963 132.953 74.6657 133.186 74.3636C133.357 74.1 133.587 73.8744 133.86 73.7025C134.134 73.5306 134.444 73.4166 134.769 73.3683C135.008 73.3607 135.24 73.4381 135.42 73.585C135.6 73.7319 135.713 73.9372 135.738 74.1594C135.76 74.5363 135.685 74.9128 135.519 75.2568Z"/><path fill="#C7C7C7" d="M138.821 75.193C138.546 76.0772 137.915 76.8273 137.061 77.2858C136.665 77.4899 136.542 77.005 136.938 76.8009C137.474 76.5102 137.891 76.0614 138.125 75.5248C138.163 75.4289 138.195 75.3308 138.22 75.2313C138.308 74.9176 138.308 74.588 138.22 74.2743C138.182 74.1371 138.095 74.0159 137.975 73.9297H137.893C137.799 73.9115 137.701 73.9115 137.607 73.9297C137.421 73.9909 137.257 74.0965 137.129 74.236C136.903 74.4923 136.706 74.7704 136.543 75.0654C136.538 75.0993 136.538 75.1336 136.543 75.1675H135.942C136.08 74.8203 136.264 74.4903 136.488 74.1849C136.663 73.9221 136.896 73.6974 137.171 73.5257C137.446 73.354 137.757 73.2394 138.084 73.1896C138.321 73.1822 138.552 73.2601 138.73 73.4073C138.908 73.5545 139.018 73.7597 139.039 73.9808C139.083 74.3958 139.008 74.8144 138.821 75.193Z"/><path fill="#C7C7C7" d="M142.109 75.1165C141.979 75.5573 141.757 75.9696 141.454 76.3289C141.152 76.6883 140.776 76.9876 140.349 77.2092C139.953 77.4261 139.844 76.9285 140.226 76.7371C140.763 76.4441 141.184 75.9965 141.426 75.461C141.46 75.3691 141.487 75.2754 141.508 75.1803C141.61 74.8683 141.61 74.5352 141.508 74.2232C141.47 74.086 141.383 73.9648 141.263 73.8787H141.14C141.043 73.8476 140.937 73.8476 140.84 73.8787C140.659 73.9476 140.496 74.0521 140.362 74.1849C140.202 74.3463 140.064 74.5265 139.953 74.7209C139.953 74.8102 139.844 74.9123 139.776 75.0144V75.0782V75.1803C139.776 75.1803 139.776 75.1803 139.776 75.2441H139.08C139.218 74.8969 139.401 74.5669 139.626 74.2615C139.8 73.9987 140.033 73.7739 140.309 73.6022C140.584 73.4306 140.895 73.316 141.222 73.2662C141.461 73.2554 141.696 73.3318 141.876 73.4793C142.057 73.6268 142.169 73.8339 142.19 74.0573C142.252 74.4115 142.224 74.7742 142.109 75.1165Z"/><path fill="#C7C7C7" d="M145.41 75.0526C145.143 75.9407 144.51 76.6933 143.65 77.1454C143.254 77.3623 143.132 76.8646 143.527 76.6732C144.066 76.3864 144.485 75.9364 144.714 75.3972C144.752 75.3055 144.784 75.2118 144.81 75.1165C144.898 74.8027 144.898 74.4731 144.81 74.1594C144.774 74.0209 144.687 73.8988 144.564 73.8149H144.428C144.335 73.7837 144.234 73.7837 144.141 73.8149C143.956 73.876 143.791 73.9816 143.664 74.1211C143.499 74.2749 143.361 74.4513 143.254 74.6443C143.187 74.7377 143.128 74.8358 143.077 74.9378V75.0144C143.07 75.048 143.07 75.0828 143.077 75.1165H142.477C142.612 74.7681 142.796 74.4377 143.023 74.1339C143.197 73.8711 143.43 73.6463 143.705 73.4746C143.981 73.303 144.292 73.1884 144.619 73.1386C144.856 73.1312 145.087 73.2091 145.265 73.3563C145.442 73.5034 145.553 73.7086 145.574 73.9297C145.621 74.311 145.565 74.6971 145.41 75.0526Z"/><path fill="#C7C7C7" d="M148.698 74.9889C148.568 75.4297 148.346 75.842 148.044 76.2013C147.741 76.5607 147.365 76.86 146.938 77.0816C146.542 77.2858 146.433 76.8009 146.815 76.6094C147.352 76.3165 147.773 75.8688 148.016 75.3334C148.049 75.2415 148.077 75.1478 148.097 75.0527C148.185 74.7389 148.185 74.4093 148.097 74.0956C148.062 73.9571 147.975 73.835 147.852 73.7511H147.77C147.673 73.72 147.567 73.72 147.47 73.7511C147.291 73.8182 147.129 73.918 146.992 74.0446C146.835 74.2084 146.698 74.3882 146.583 74.5805C146.515 74.6698 146.474 74.7719 146.406 74.874V74.9506V75.0527C146.399 75.0734 146.399 75.0957 146.406 75.1165H145.806C145.941 74.7681 146.124 74.4377 146.351 74.1339C146.526 73.8711 146.759 73.6463 147.034 73.4746C147.309 73.303 147.621 73.1884 147.947 73.1386C148.185 73.1276 148.417 73.2022 148.598 73.3471C148.778 73.4919 148.892 73.6959 148.916 73.917C148.934 74.2853 148.859 74.6526 148.698 74.9889Z"/><path fill="#C7C7C7" d="M151.999 74.8995C151.724 75.7838 151.093 76.5339 150.239 76.9923C149.844 77.1965 149.721 76.7115 150.117 76.5074C150.656 76.2206 151.074 75.7705 151.303 75.2313L151.358 74.8995C151.446 74.5815 151.446 74.2478 151.358 73.9298C151.323 73.7945 151.235 73.6763 151.112 73.598H151.031C150.937 73.5741 150.838 73.5741 150.744 73.598C150.56 73.6538 150.395 73.7552 150.267 73.8915C150.105 74.0521 149.967 74.2323 149.857 74.4274C149.79 74.5208 149.731 74.6189 149.68 74.7209V74.823C149.68 74.823 149.68 74.823 149.68 74.8995H149.08C149.207 74.5477 149.391 74.2163 149.625 73.917C149.797 73.6513 150.029 73.4244 150.304 73.2523C150.58 73.0802 150.894 72.9673 151.222 72.9217C151.457 72.9109 151.689 72.9859 151.867 73.131C152.045 73.2761 152.156 73.4801 152.177 73.7001C152.231 74.1075 152.17 74.5213 151.999 74.8995Z"/><path fill="#F7A9A0" d="M150.676 86.3841C152.668 90.7354 157.893 96.2352 158.193 99.7444C158.302 100.605 158.111 101.476 157.649 102.228C157.187 102.98 156.478 103.572 155.628 103.917C155.628 103.917 159.27 105.793 158.984 109.021C158.834 110.68 155.874 111.905 155.874 111.905C156.674 112.375 157.323 113.041 157.748 113.83C158.174 114.619 158.36 115.503 158.288 116.384C157.933 118.656 155.014 119.562 155.014 119.562C155.014 119.562 156.979 122.305 155.819 124.513C153.472 128.992 132.423 128.213 129.462 120.838C128.098 117.392 133.227 117.839 133.227 117.839C133.227 117.839 126.011 115.529 126.079 111.459C126.147 107.388 132.764 108.358 132.764 108.358C132.764 108.358 125.792 106.061 126.311 101.85C126.829 97.6389 133.309 99.4892 133.309 99.4892C133.309 99.4892 128.753 96.3501 129.94 93.211C131.89 88.0302 140.485 94.9592 145.151 94.1042L148.016 87.0604L150.676 86.3841Z"/><path fill="#F7A9A0" d="M154.632 92.7644C153.131 88.4896 158.929 83.5002 158.124 79.2126C157.047 73.4321 149.939 78.8043 148.016 87.0859L147.756 93.7469L154.632 92.7644Z"/><path fill="#263238" d="M154.577 119.791C154.646 119.791 154.659 119.881 154.577 119.893C147.309 121.286 139.76 120.583 132.927 117.877C132.723 117.788 132.777 117.418 133.036 117.482C140.06 119.219 147.316 119.997 154.577 119.791Z"/><path fill="#263238" d="M155.969 111.982C155.984 111.988 155.996 111.998 156.005 112.01C156.014 112.022 156.018 112.037 156.018 112.052C156.018 112.067 156.014 112.081 156.005 112.094C155.996 112.106 155.984 112.116 155.969 112.122C147.938 113.594 139.609 112.326 132.491 108.549C132.259 108.422 132.177 108.064 132.491 108.205C137.443 110.553 149.162 112.275 155.969 111.982Z"/><path fill="#263238" d="M132.886 99.0681C139.885 102.692 147.415 103.853 155.328 104.006C155.346 104.013 155.361 104.025 155.372 104.039C155.382 104.054 155.388 104.072 155.388 104.089C155.388 104.107 155.382 104.125 155.372 104.139C155.361 104.154 155.346 104.166 155.328 104.172C151.426 105.078 146.392 104.491 142.518 103.726C138.9 103.074 135.528 101.547 132.736 99.2978C132.641 99.2084 132.736 98.9915 132.886 99.0681Z"/></svg>