<svg width="152" height="351" viewBox="0 0 152 351" fill="none" xmlns="http://www.w3.org/2000/svg">
<path d="M33.04 345.115C35.28 345.775 97.1264 344.488 99.4559 343.005C100.33 342.453 100.666 333.722 100.755 323.172C100.755 320.9 100.755 318.552 100.755 316.15C100.755 313.326 100.755 310.459 100.699 307.678C100.531 295.192 100.139 284.198 100.139 284.198L59.8193 284.913L60.2896 308.403L60.4688 316.875L60.8048 323.886C60.8048 323.886 37.2849 334.62 34.9665 336.524C32.6481 338.428 30.8672 344.466 33.04 345.115Z" fill="#AD6359"/>
<path d="M33.04 345.115C35.28 345.775 97.1264 344.488 99.456 343.005C100.33 342.453 100.666 333.722 100.755 323.172C100.755 320.9 100.755 318.552 100.755 316.15C100.755 313.326 100.755 310.459 100.699 307.678L60.312 308.403L60.4912 316.875L60.8272 323.886C60.8272 323.886 37.3072 334.62 34.9888 336.524C32.6704 338.428 30.8672 344.466 33.04 345.115Z" fill="white"/>
<path d="M32.8609 345.212C34.2833 345.634 60.6481 345.212 79.8337 344.52C84.3137 344.358 88.3345 344.163 91.6161 343.968C96.0961 343.687 99.1537 343.395 99.6353 343.081C100.755 342.388 100.991 329.588 100.979 316.085L60.4801 316.81L60.8273 323.865C60.8273 323.865 37.2288 334.685 34.832 336.567C32.4352 338.45 30.6769 344.542 32.8609 345.212Z" fill="#FFCF40"/>
<path d="M33.7009 342.789C44.1281 342.323 86.2288 341.404 96.5776 341.707C96.6672 341.707 96.6672 341.707 96.5776 341.707C86.2512 342.388 44.1393 342.973 33.7009 342.886C33.4657 342.951 33.4657 342.8 33.7009 342.789Z" fill="#263238"/>
<path d="M59.304 321.657C63.392 320.824 68.4208 321.333 71.624 324.092C71.7472 324.2 71.624 324.373 71.456 324.33C67.5043 323.192 63.438 322.467 59.3265 322.166C59.2567 322.169 59.1885 322.145 59.137 322.099C59.0856 322.053 59.055 321.99 59.052 321.922C59.049 321.855 59.0739 321.789 59.1212 321.739C59.1684 321.69 59.2342 321.66 59.304 321.657Z" fill="#263238"/>
<path d="M56.3809 323.421C60.4688 322.588 65.4976 323.096 68.7008 325.855C68.824 325.964 68.7007 326.137 68.5327 326.094C64.5809 324.957 60.5146 324.232 56.4032 323.93C56.3687 323.931 56.3341 323.926 56.3017 323.914C56.2692 323.903 56.2394 323.885 56.2139 323.863C56.1624 323.817 56.1318 323.754 56.1288 323.686C56.1259 323.619 56.1508 323.553 56.198 323.503C56.2453 323.453 56.3111 323.424 56.3809 323.421Z" fill="#263238"/>
<path d="M53.4465 325.228C57.5345 324.406 62.5745 324.903 65.7664 327.662C65.8896 327.771 65.7664 327.944 65.5984 327.9C61.6465 326.764 57.5803 326.038 53.4688 325.736C53.4343 325.738 53.3998 325.733 53.3673 325.721C53.3348 325.71 53.305 325.692 53.2795 325.67C53.228 325.624 53.1974 325.56 53.1945 325.493C53.1915 325.426 53.2164 325.36 53.2636 325.31C53.3109 325.26 53.3767 325.231 53.4465 325.228Z" fill="#263238"/>
<path d="M50.5232 327.013C54.6112 326.191 59.6513 326.689 62.8433 329.459C62.9665 329.556 62.8433 329.729 62.6641 329.697C58.7172 328.555 54.6541 327.83 50.5456 327.533C50.5103 327.534 50.4751 327.529 50.4419 327.517C50.4087 327.505 50.3783 327.487 50.3523 327.464C50.3263 327.441 50.3052 327.413 50.2904 327.382C50.2755 327.351 50.2671 327.318 50.2656 327.284C50.2641 327.25 50.2697 327.216 50.2818 327.183C50.294 327.151 50.3125 327.122 50.3364 327.097C50.3604 327.072 50.3892 327.051 50.4212 327.037C50.4533 327.023 50.4879 327.015 50.5232 327.013Z" fill="#263238"/>
<path d="M53.48 318.249C56.4368 320.413 60.2 321.181 63.6496 322.328C63.7271 322.347 63.8083 322.348 63.8863 322.331C63.9643 322.314 64.037 322.279 64.0983 322.229C64.1595 322.18 64.2077 322.117 64.2387 322.045C64.2698 321.974 64.2828 321.897 64.2768 321.82C64.2943 321.817 64.3111 321.811 64.326 321.802C64.3408 321.793 64.3535 321.781 64.3631 321.766C64.3726 321.752 64.3789 321.736 64.3814 321.719C64.3839 321.702 64.3826 321.685 64.3776 321.668C63.0511 318.184 60.7993 315.098 57.848 312.72C56.1008 311.357 53.0768 310.459 51.52 312.633C49.9632 314.808 51.7552 317.005 53.48 318.249ZM52.36 315.079C51.5424 310.751 56.4256 312.915 57.68 313.997C58.4802 314.688 59.2287 315.433 59.92 316.226C61.3232 317.874 62.6355 319.594 63.8512 321.376C62.216 320.716 60.4912 320.197 58.856 319.591C56.8512 318.855 52.8192 317.47 52.36 315.079Z" fill="#263238"/>
<path d="M77.9519 315.349C76.8991 312.893 73.7408 313.185 71.736 314.116C68.3302 315.832 65.4524 318.385 63.392 321.517C63.336 321.592 63.392 321.646 63.392 321.679C63.3687 321.753 63.3642 321.832 63.3788 321.909C63.3935 321.985 63.4269 322.057 63.4762 322.118C63.5256 322.18 63.5895 322.229 63.6625 322.262C63.7356 322.294 63.8156 322.31 63.896 322.306C67.4912 321.895 71.3776 321.884 74.7376 320.424C76.7423 319.569 78.9375 317.665 77.9519 315.349ZM69.3056 320.608C67.5472 320.846 65.7888 321.008 64.0304 321.311C65.6656 319.872 67.2336 318.379 69.0144 317.091C69.8615 316.463 70.7521 315.892 71.68 315.382C73.1248 314.613 78.4 313.488 76.6192 317.546C75.6112 319.796 71.3664 320.316 69.3056 320.608Z" fill="#263238"/>
<path opacity="0.2" d="M64.5456 344.996C69.7536 344.866 75.0176 344.704 79.8448 344.52C84.3248 344.358 88.3344 344.163 91.616 343.968C96.096 343.687 99.1537 343.395 99.6353 343.081C100.576 342.475 100.912 332.585 100.968 321.062C91.7729 327.002 73.7184 338.915 64.5456 344.996Z" fill="black"/>
<path d="M56.8736 323.421H102.906C102.906 323.421 100.386 201.772 100.878 199.445C102.066 193.884 128.218 105.712 128.218 105.712L91.8959 106.318L81.7152 106.523C81.7152 106.523 80.5951 121.206 80.1359 122.753C74.0655 144.144 62.216 180.662 59.808 194.165C55.5744 217.72 56.8736 323.421 56.8736 323.421Z" fill="#263238"/>
<path d="M58.3632 315.977C65.5312 315.804 90.944 315.068 100.509 315.76C100.527 315.76 100.544 315.767 100.556 315.779C100.569 315.792 100.576 315.808 100.576 315.825C100.576 315.843 100.569 315.859 100.556 315.871C100.544 315.883 100.527 315.89 100.509 315.89C97.2384 316.41 65.5424 316.269 58.3632 316.172C58.3365 316.172 58.3109 316.161 58.292 316.143C58.2731 316.125 58.2625 316.1 58.2625 316.074C58.2625 316.048 58.2731 316.024 58.292 316.005C58.3109 315.987 58.3365 315.977 58.3632 315.977Z" fill="#37474F"/>
<path d="M97.2272 197.271C98.5936 191.861 108.842 158.178 111.978 147.499C115.114 136.819 118.048 126.183 120.747 115.439C121.094 114.076 121.442 112.723 121.867 111.371C121.867 111.348 121.877 111.326 121.893 111.309C121.91 111.293 121.933 111.284 121.957 111.284C121.981 111.284 122.003 111.293 122.02 111.309C122.037 111.326 122.046 111.348 122.046 111.371C121.016 116.781 119.65 122.191 118.339 127.492C117.029 132.794 115.618 138.183 114.139 143.495C111.153 154.178 107.916 164.782 104.429 175.306C102.67 180.543 99.7808 191.309 98.2352 196.621C96.6896 201.934 99.2096 310.653 99.0528 312.071C99.0528 312.154 99.0186 312.234 98.9577 312.293C98.8967 312.351 98.8142 312.385 98.728 312.385C98.6419 312.385 98.5593 312.351 98.4984 312.293C98.4374 312.234 98.4032 312.154 98.4032 312.071C98.1456 301.889 95.872 202.605 97.2272 197.271Z" fill="#37474F"/>
<path d="M91.8513 106.339C91.8513 106.339 100.733 199.921 100.811 199.467C101.931 194.057 126.571 111.176 128.083 105.993L128.15 105.744L91.8513 106.339Z" fill="#37474F"/>
<path d="M81.9169 350.244C84.1569 350.904 145.992 349.616 148.322 348.08C149.206 347.517 149.542 338.796 149.632 328.247C149.632 325.964 149.632 323.627 149.632 321.225C149.632 318.4 149.632 315.533 149.565 312.752C149.408 300.266 148.075 289.273 148.075 289.273L108.718 289.987L109.189 313.477L109.357 321.949L109.704 328.961C109.704 328.961 86.1841 339.694 83.8657 341.599C81.5473 343.503 79.7441 349.595 81.9169 350.244Z" fill="#AD6359"/>
<path d="M81.9168 350.244C84.1568 350.904 145.992 349.616 148.322 348.08C149.207 347.517 149.542 338.796 149.632 328.247C149.632 325.964 149.632 323.626 149.632 321.224C149.632 318.4 149.632 315.533 149.565 312.752L109.245 313.477L109.413 321.949L109.76 328.961C109.76 328.961 86.24 339.694 83.9216 341.599C81.6032 343.503 79.744 349.595 81.9168 350.244Z" fill="white"/>
<path d="M81.7376 350.33C83.1488 350.763 109.525 350.33 128.71 349.649C133.19 349.476 137.211 349.292 140.482 349.097C144.962 348.816 148.019 348.523 148.512 348.21C149.632 347.506 149.867 334.706 149.845 321.16L109.357 321.884L109.693 328.928C109.693 328.928 86.0944 339.748 83.7088 341.631C81.3232 343.514 79.5536 349.67 81.7376 350.33Z" fill="#FFCF40"/>
<path d="M82.5775 347.907C93.0048 347.452 135.106 346.533 145.454 346.825C145.533 346.825 145.533 346.89 145.454 346.89C135.128 347.571 93.0159 348.156 82.5775 348.069C82.3535 348.08 82.3535 347.917 82.5775 347.907Z" fill="#263238"/>
<path d="M108.17 326.775C112.258 325.953 117.298 326.461 120.49 329.22C120.613 329.329 120.49 329.491 120.322 329.459C116.37 328.322 112.303 327.597 108.192 327.295C108.157 327.296 108.121 327.291 108.088 327.279C108.055 327.267 108.025 327.249 107.999 327.226C107.973 327.203 107.952 327.175 107.937 327.144C107.922 327.113 107.913 327.08 107.912 327.046C107.911 327.012 107.916 326.978 107.928 326.945C107.94 326.913 107.959 326.884 107.983 326.859C108.007 326.834 108.036 326.813 108.068 326.799C108.1 326.785 108.134 326.777 108.17 326.775Z" fill="#263238"/>
<path d="M105.246 328.561C109.334 327.738 114.374 328.247 117.567 331.006C117.69 331.114 117.566 331.276 117.387 331.244C113.439 330.107 109.377 329.382 105.269 329.08C105.198 329.083 105.128 329.058 105.075 329.011C105.023 328.965 104.992 328.9 104.989 328.831C104.986 328.762 105.011 328.695 105.06 328.644C105.108 328.593 105.175 328.563 105.246 328.561Z" fill="#263238"/>
<path d="M102.323 330.357C106.411 329.523 111.451 330.032 114.643 332.791C114.766 332.899 114.643 333.072 114.475 333.029C110.524 331.892 106.457 331.166 102.346 330.865C102.311 330.867 102.277 330.861 102.244 330.85C102.212 330.838 102.182 330.821 102.156 330.798C102.105 330.753 102.074 330.689 102.071 330.622C102.068 330.554 102.093 330.488 102.14 330.439C102.188 330.389 102.253 330.359 102.323 330.357Z" fill="#263238"/>
<path d="M99.4 332.142C103.488 331.309 108.517 331.817 111.72 334.576C111.843 334.685 111.72 334.858 111.552 334.814C107.6 333.677 103.534 332.951 99.4225 332.65C99.3879 332.652 99.3534 332.647 99.3209 332.635C99.2884 332.624 99.2585 332.606 99.233 332.584C99.1816 332.538 99.151 332.474 99.1481 332.407C99.1451 332.34 99.17 332.274 99.2172 332.224C99.2645 332.174 99.3302 332.145 99.4 332.142Z" fill="#263238"/>
<path d="M102.357 323.421C105.302 325.585 109.077 326.353 112.526 327.489C112.874 327.608 113.154 327.284 113.154 326.981C113.221 326.981 113.277 326.927 113.243 326.84C111.921 323.353 109.673 320.264 106.725 317.881C104.978 316.529 101.954 315.631 100.386 317.805C98.8176 319.98 100.666 322.133 102.357 323.421ZM101.237 320.251C100.419 315.923 105.302 318.087 106.546 319.169C107.345 319.856 108.094 320.597 108.786 321.387C110.242 323.01 111.44 324.795 112.717 326.537C111.07 325.877 109.357 325.358 107.722 324.763C105.717 323.973 101.685 322.599 101.237 320.175V320.251Z" fill="#263238"/>
<path d="M126.818 320.467C125.776 318.022 122.618 318.303 120.613 319.244C117.201 320.957 114.319 323.51 112.258 326.645C112.246 326.654 112.237 326.666 112.23 326.679C112.224 326.692 112.22 326.707 112.22 326.721C112.22 326.736 112.224 326.75 112.23 326.763C112.237 326.776 112.246 326.788 112.258 326.797C112.237 326.873 112.235 326.952 112.251 327.029C112.267 327.105 112.302 327.178 112.351 327.239C112.401 327.301 112.465 327.351 112.538 327.385C112.612 327.419 112.692 327.436 112.773 327.435C116.357 327.024 120.254 327.013 123.603 325.542C125.619 324.687 127.814 322.793 126.818 320.467ZM118.138 325.726C116.379 325.974 114.61 326.137 112.862 326.44C114.446 324.953 116.105 323.545 117.835 322.22C118.682 321.592 119.573 321.021 120.501 320.51C121.957 319.742 127.221 318.606 125.451 322.674C124.477 324.925 120.232 325.444 118.138 325.726Z" fill="#263238"/>
<path d="M107.016 327.933L151.637 327.132C151.637 327.132 140.09 150.128 140.661 141.775C141.366 131.528 141.042 112.907 134.333 105.593L90.8432 106.372C90.8432 106.372 91.9633 119.983 93.4193 124.311C93.4193 124.311 99.0192 127.557 100.957 128.639L107.016 327.933Z" fill="#263238"/>
<path d="M108.248 320.283C114.968 319.991 113.064 319.98 119.829 319.764C123.189 319.656 144.917 318.963 148.019 319.396C148.037 319.396 148.054 319.403 148.067 319.415C148.079 319.427 148.086 319.444 148.086 319.461C148.086 319.478 148.079 319.495 148.067 319.507C148.054 319.519 148.037 319.526 148.019 319.526C144.939 320.088 123.166 320.413 119.851 320.456C113.131 320.554 115.024 320.456 108.248 320.456C108.233 320.464 108.215 320.468 108.198 320.467C108.181 320.466 108.164 320.462 108.149 320.453C108.135 320.444 108.122 320.432 108.114 320.417C108.105 320.403 108.101 320.386 108.101 320.37C108.101 320.353 108.105 320.337 108.114 320.322C108.122 320.307 108.135 320.295 108.149 320.287C108.164 320.278 108.181 320.273 108.198 320.272C108.215 320.272 108.233 320.276 108.248 320.283Z" fill="#37474F"/>
<path d="M92.0864 123.251C96.3825 125.171 100.504 127.437 104.406 130.024C104.426 130.031 104.445 130.043 104.46 130.057C104.475 130.072 104.487 130.09 104.494 130.109C104.501 130.128 104.504 130.149 104.502 130.17C104.5 130.19 104.493 130.21 104.482 130.228C104.471 130.246 104.456 130.261 104.439 130.273C104.421 130.284 104.401 130.292 104.38 130.295C104.359 130.299 104.337 130.297 104.316 130.292C104.296 130.286 104.277 130.276 104.261 130.262C100.083 128.098 95.8159 126.064 91.7728 123.77C91.7375 123.75 91.7066 123.724 91.6818 123.693C91.6571 123.661 91.639 123.625 91.6286 123.587C91.6182 123.549 91.6157 123.509 91.6212 123.47C91.6267 123.431 91.6402 123.393 91.6608 123.359C91.6814 123.325 91.7087 123.295 91.7412 123.271C91.7738 123.247 91.8108 123.23 91.8503 123.22C91.8899 123.21 91.931 123.207 91.9715 123.213C92.012 123.218 92.0511 123.231 92.0864 123.251Z" fill="#37474F"/>
<path d="M97.6081 122.591C97.8799 123.398 98.0932 124.222 98.2465 125.058C98.4356 125.708 98.4926 126.388 98.4144 127.06C98.4144 127.189 98.2016 127.189 98.1456 127.06C97.7993 126.433 97.5574 125.757 97.4288 125.058C97.2048 124.3 96.9696 123.532 96.768 122.764C96.7653 122.666 96.7984 122.569 96.8615 122.492C96.9246 122.414 97.0138 122.361 97.1135 122.34C97.2133 122.32 97.3174 122.333 97.4077 122.379C97.498 122.425 97.5689 122.5 97.6081 122.591Z" fill="#37474F"/>
<path d="M97.9216 118.533C97.7984 117.841 97.664 117.138 97.5184 116.445C97.3728 115.753 97.1712 115.006 97.0816 114.281C97.0816 114.173 96.8688 114.205 96.8912 114.281C97.0144 114.984 97.048 115.709 97.1152 116.445C97.1824 117.181 97.272 117.863 97.3616 118.609C97.5184 119.929 97.7872 121.26 98.0784 122.558C97.3551 122.452 96.666 122.19 96.0624 121.79C95.4832 121.251 95.0918 120.552 94.9425 119.789C94.7185 118.988 94.5168 118.187 94.2817 117.387C93.9729 116.516 93.7406 115.622 93.5873 114.714C93.5873 114.595 93.3857 114.638 93.4081 114.714C93.6156 116.631 94.0208 118.523 94.6176 120.362C94.7555 121.086 95.1518 121.741 95.7376 122.212C96.5021 122.585 97.3361 122.806 98.1904 122.861C98.28 122.861 98.4256 122.861 98.4144 122.742C98.3281 121.332 98.1636 119.927 97.9216 118.533Z" fill="#37474F"/>
<path d="M133.594 141.364C133.84 138.269 134.31 135.196 134.602 132.113C135.15 125.92 134.658 119.683 133.146 113.643C133.146 113.62 133.155 113.598 133.172 113.582C133.189 113.565 133.211 113.556 133.235 113.556C133.259 113.556 133.282 113.565 133.299 113.582C133.315 113.598 133.325 113.62 133.325 113.643C134.663 118.956 135.34 124.405 135.341 129.873C135.173 135.283 134.277 140.693 134.288 146.168C134.299 151.643 134.859 157.204 135.33 162.711C135.8 168.219 136.282 173.791 136.752 179.331C138.667 201.588 140.459 245.495 142.352 267.763C142.86 273.974 143.356 280.191 143.842 286.417C144.334 292.735 145.096 308.338 145.454 314.678C145.454 315.219 144.648 315.198 144.592 314.678C143.394 303.523 142.43 283.019 141.478 271.831C140.526 260.643 139.653 249.683 138.734 238.603C137.816 227.523 136.92 194.814 136.024 183.735L134.714 167.126C134.277 161.608 133.75 156.09 133.594 150.561C133.417 147.497 133.417 144.427 133.594 141.364Z" fill="#37474F"/>
<path d="M117.656 113.513C117.664 113.497 117.677 113.484 117.693 113.474C117.709 113.465 117.727 113.46 117.746 113.46C117.764 113.46 117.782 113.465 117.798 113.474C117.814 113.484 117.827 113.497 117.835 113.513C118.111 114.238 118.262 115.002 118.283 115.774C118.434 116.596 118.647 117.406 118.922 118.198C119.433 119.798 120.362 121.244 121.621 122.396C124.398 124.82 128.083 125.642 131.634 126.443C131.768 126.443 131.723 126.638 131.634 126.648C129.541 126.775 127.444 126.499 125.462 125.837C123.696 125.346 122.059 124.497 120.658 123.348C119.324 122.162 118.398 120.61 118.003 118.901C117.799 118.009 117.683 117.099 117.656 116.185C117.656 115.742 117.656 115.309 117.656 114.865C117.563 114.419 117.563 113.959 117.656 113.513Z" fill="#37474F"/>
<path d="M100.195 55.4745C95.928 75.1236 87.3488 95.8114 84.6832 99.9879C77.5264 111.187 42 114.53 33.3424 116.424C30.0832 117.138 29.3328 91.7106 32.7824 90.8342C39.1664 89.2112 66.2256 86.7443 67.5808 85.078C68.5104 83.9202 79.8112 66.4351 87.5504 55.7991C97.1712 42.577 101.315 50.3133 100.195 55.4745Z" fill="#AD6359"/>
<path d="M91.448 90.0444L76.5296 69.3457C81.1211 62.5151 86.3028 56.0723 92.0193 50.0861C100.094 42.036 102.906 51.3196 98.9409 65.9915C94.9761 80.6634 91.448 90.0444 91.448 90.0444Z" fill="#455A64"/>
<path d="M92.9487 83.2169C89.9248 78.6184 86.5536 74.2147 83.104 69.8867C82.1334 68.6677 81.1291 67.4666 80.0913 66.2837C80.0913 66.2837 80.0017 66.2837 80.0913 66.2837C81.6481 68.545 83.3056 70.7523 84.952 72.9596C86.5984 75.1669 88.312 77.385 89.9919 79.5598C90.9551 80.7933 91.9184 82.0159 92.9152 83.2278C92.904 83.2819 92.9935 83.2169 92.9487 83.2169Z" fill="#263238"/>
<path d="M82.7456 78.0125L91.4144 90.0552C91.4144 90.0552 94.9424 80.6743 98.9072 66.0023C101.069 58.0172 101.226 51.6334 99.6128 48.7552C95.368 56.1669 87.4048 69.93 82.7456 78.0125Z" fill="#263238"/>
<path d="M142.755 125.75C142.598 125.913 76.5297 125.415 75.9361 124.755C75.1073 123.824 90.7985 54.8253 97.6753 46.3424C99.1537 44.5354 103.936 44.081 108.002 44.6112C109.061 44.7398 110.106 44.957 111.126 45.2604H111.238C112.044 45.4949 112.801 45.8609 113.478 46.3424C124.678 55.1823 133.874 85.7921 136.002 95.0324C139.563 110.18 143.304 125.155 142.755 125.75Z" fill="#455A64"/>
<path d="M116.122 47.5109C116.122 47.5109 117.242 85.5541 117.79 87.9128C118.339 90.2716 139.866 103.926 139.866 103.926L140.213 106.415L135.867 105.993C135.867 105.993 134.747 171.173 137.413 187.89C138.074 192.066 142.856 218.64 142.856 218.64C142.856 218.64 123.122 227.426 101.662 226.755C93.128 226.485 56.2016 216.887 56.2016 216.887C56.2016 216.887 54.096 194.295 59.1136 174.354C66.248 145.973 77.4928 113.394 80.5056 95.5842C83.4848 77.9584 94.1808 47.6949 94.1808 47.6949L97.5409 45.4335L92.2544 66.4027C92.2544 66.4027 97.5744 68.6749 107.027 66.5541L112.862 45.0223L116.122 47.5109Z" fill="#FFCF40"/>
<path opacity="0.1" d="M99.5456 161.316C99.5456 161.316 109.446 162.831 112.986 162.744C117.057 162.355 121.102 161.748 125.104 160.926C125.104 160.926 126.84 182.923 126.683 183.399C126.526 183.875 113.467 188.896 111.451 188.95C109.435 189.004 99.1872 183.54 99.1872 183.54L99.5456 161.316Z" fill="black"/>
<path d="M66.3152 99.0141C71.5904 110.094 77.2464 121.368 77.2464 121.368C78.0089 121.439 78.7767 121.306 79.4661 120.983C80.1555 120.661 80.7398 120.161 81.1552 119.54C81.1552 119.54 75.7008 108.049 70.4816 97.0773L69.944 95.9196C69.8096 95.6599 69.6864 95.4003 69.5632 95.1406C69.1936 94.3615 68.824 93.5933 68.4432 92.8251L68.0736 92.0461L65.8336 87.4259L65.464 86.6469C63.3248 82.1458 61.6896 78.705 61.208 77.7096C58.8112 72.7107 57.848 52.1744 57.848 52.1744C57.848 52.1744 57.456 50.3241 54.1632 51.352C54.1632 51.352 54.8352 59.4238 55.6864 67.041L51.7664 48.4956C51.2534 48.2965 50.6963 48.2269 50.1477 48.2931C49.5991 48.3594 49.0769 48.5593 48.6304 48.8742L51.128 59.5428L46.4912 49.1015C46.4912 49.1015 45.1808 48.831 43.4112 50.5405L52.3712 68.9345L43.2096 54.8685C42.1967 55.1501 41.2927 55.7148 40.6112 56.4915C40.6112 56.4915 47.3312 65.5479 55.4288 77.7853L43.7808 63.7409C43.3123 63.9052 42.8853 64.1638 42.5281 64.4995C42.1709 64.8353 41.8916 65.2406 41.7088 65.6885C41.7088 65.6885 55.608 78.4128 61.3312 88.6053L61.7568 89.3735L62.2832 90.4555C62.8208 91.6024 63.4032 92.7926 63.9408 94.0045C64.0528 94.2642 64.176 94.5238 64.2992 94.7943L65.4192 97.099L65.7888 97.8888L66.3152 99.0141Z" fill="white"/>
<path d="M41.7088 65.6777C41.7088 65.6777 55.608 78.402 61.3312 88.5945L65.5312 86.6469C63.392 82.1458 61.7568 78.705 61.2752 77.7096C58.8784 72.7107 57.9152 52.1744 57.9152 52.1744C57.9152 52.1744 57.5232 50.3241 54.2304 51.352C54.2304 51.352 54.9024 59.4238 55.7536 67.041L51.8336 48.4956C51.3206 48.2965 50.7635 48.2269 50.2149 48.2931C49.6663 48.3594 49.1441 48.5593 48.6976 48.8742L51.1952 59.5428L46.5584 49.1015C46.5584 49.1015 45.248 48.831 43.4784 50.5405L52.4384 68.9345L43.2768 54.8685C42.2639 55.1501 41.3599 55.7148 40.6784 56.4915C40.6784 56.4915 47.3984 65.5479 55.496 77.7853L43.7808 63.7409C43.3134 63.904 42.8871 64.1609 42.5299 64.4948C42.1728 64.8286 41.8929 65.2318 41.7088 65.6777Z" fill="#37474F"/>
<path d="M63.9408 94.037L68.0959 92.1002L65.856 87.48L61.712 89.4168L62.2384 90.4988C62.8208 91.5808 63.3696 92.771 63.9408 94.037Z" fill="#37474F"/>
<path d="M65.3969 97.0774L69.5632 95.1406C69.1936 94.3615 68.824 93.5933 68.4432 92.8251L64.2769 94.7727L65.3969 97.0774Z" fill="#37474F"/>
<path d="M66.3153 99.0142L70.4816 97.0774L69.9441 95.9196L65.7665 97.8672L66.3153 99.0142Z" fill="#37474F"/>
<path d="M41.5968 100.529C48.496 110.732 55.384 121.347 55.384 121.347C55.0442 122.01 54.5214 122.57 53.8733 122.966C53.2252 123.361 52.4767 123.576 51.7104 123.586L37.6768 102.909L36.96 101.827L36.4672 101.102C35.9856 100.388 35.504 99.6742 35.0224 98.9384L34.5408 98.2135L31.6512 94.0369C31.4944 93.7881 31.3264 93.55 31.1696 93.312C28.3584 89.1679 26.208 86.0085 25.5696 85.0888C22.456 80.4578 4.96158 68.7506 4.96158 68.7506C4.96158 68.7506 3.55036 67.4522 6.20476 65.299C6.20476 65.299 12.9248 70.1464 19.152 74.8855L4.99521 61.7933C5.0939 61.2694 5.32851 60.7782 5.67716 60.3656C6.02582 59.9531 6.4771 59.6328 6.98878 59.4346L15.0304 67.1492L8.31037 57.8116C8.31037 57.8116 8.7696 56.5889 11.2112 56.0479L22.5792 73.1219L15.0864 58.1362C15.8721 57.4595 16.8453 57.0195 17.8864 56.8702C17.8864 56.8702 22.2432 67.225 28.6832 80.3172L22.6016 63.3081C22.997 63.0154 23.4512 62.8056 23.9352 62.6919C24.4192 62.5783 24.9225 62.5634 25.4128 62.6481C25.4128 62.6481 29.1872 80.7933 35.0896 90.8991C35.2352 91.148 35.3808 91.3969 35.5376 91.6457L36.176 92.6412C36.904 93.7232 37.6544 94.8052 38.416 95.8872L38.9088 96.6013L40.3536 98.7653L40.8464 99.4902L41.5968 100.529Z" fill="white"/>
<path d="M25.4353 62.6589C25.4353 62.6589 29.2096 80.8041 35.112 90.91L31.2256 93.2904C28.4144 89.1463 26.264 85.9869 25.6256 85.0672C22.512 80.4362 5.01763 68.729 5.01763 68.729C5.01763 68.729 3.60649 67.4306 6.26088 65.2774C6.26088 65.2774 12.9809 70.1247 19.2081 74.8639L4.99528 61.7933C5.09397 61.2694 5.32857 60.7782 5.67723 60.3656C6.02589 59.9531 6.47717 59.6328 6.98884 59.4346L15.0304 67.1492L8.31043 57.8116C8.31043 57.8116 8.76966 56.5889 11.2113 56.0479L22.5793 73.1219L15.0865 58.1362C15.8721 57.4595 16.8454 57.0195 17.8865 56.8702C17.8865 56.8702 22.2432 67.225 28.6832 80.3172L22.6016 63.3081C23.0006 63.0144 23.459 62.8048 23.9471 62.693C24.4352 62.5811 24.9422 62.5695 25.4353 62.6589Z" fill="#455A64"/>
<path d="M38.4496 95.8872L34.5856 98.2567L31.6512 94.0369L35.56 91.6674L36.1984 92.6628C36.9376 93.6907 37.688 94.7727 38.4496 95.8872Z" fill="#455A64"/>
<path d="M40.3872 98.722L36.4672 101.102C35.9856 100.388 35.504 99.6742 35.0224 98.9384L38.9424 96.558L40.3872 98.722Z" fill="#455A64"/>
<path d="M41.5969 100.529L37.6768 102.909L36.96 101.827L40.88 99.4469L41.5969 100.529Z" fill="#455A64"/>
<path d="M64.3104 95.5409C71.2097 105.755 78.0977 116.369 78.0977 116.369C77.7553 117.03 77.2316 117.588 76.5838 117.981C75.936 118.374 75.189 118.587 74.4241 118.598L60.3457 97.9213L59.6288 96.8393L59.2257 96.201C58.7441 95.4868 58.2625 94.7727 57.7809 94.037C57.6241 93.7881 57.4561 93.5501 57.2993 93.312L54.4097 89.0597L53.9281 88.3456L48.3281 80.1116C45.2145 75.4915 27.72 63.7842 27.72 63.7842C27.72 63.7842 26.3088 62.475 28.9632 60.3327C28.9632 60.3327 35.6832 65.1692 41.9104 69.9192L27.7312 56.8378C27.8319 56.3146 28.0672 55.8242 28.4156 55.412C28.764 54.9998 29.2143 54.6789 29.7248 54.479L37.7665 62.2045L31.0464 52.856C31.0464 52.856 31.5056 51.6334 33.9472 51.0924L45.3153 68.1772L37.8224 53.1914C38.6051 52.5105 39.5798 52.0698 40.6224 51.9255C40.6224 51.9255 44.9793 62.2802 51.4193 75.3724L45.3376 58.3309C45.7313 58.0352 46.1854 57.8235 46.67 57.7098C47.1546 57.596 47.6586 57.5828 48.1488 57.6709C48.1488 57.6709 51.9232 75.8161 57.8257 85.9111C57.9713 86.1708 58.1169 86.4197 58.2737 86.6577C58.4305 86.8957 58.6992 87.3394 58.912 87.6532C59.64 88.7352 60.3904 89.8172 61.152 90.8992L61.6448 91.6241C62.1264 92.3166 62.6081 93.0307 63.0897 93.7881L63.5825 94.5022L64.3104 95.5409Z" fill="white"/>
<path d="M48.1488 57.6926C48.1488 57.6926 51.9232 75.8377 57.8256 85.9328L53.8832 88.3348L48.2832 80.1008C45.1696 75.4806 27.6752 63.7734 27.6752 63.7734C27.6752 63.7734 26.264 62.4642 28.9184 60.3218C28.9184 60.3218 35.6384 65.1584 41.8656 69.9083L27.6864 56.827C27.7871 56.3037 28.0224 55.8134 28.3708 55.4012C28.7192 54.989 29.1695 54.6681 29.68 54.4682L37.7216 62.1937L31.0016 52.8452C31.0016 52.8452 31.4608 51.6225 33.9024 51.0815L45.2704 68.1663L37.7776 53.1806C38.5602 52.4996 39.5349 52.059 40.5776 51.9147C40.5776 51.9147 44.9344 62.2694 51.3744 75.3616L45.3376 58.3309C45.733 58.039 46.188 57.8312 46.6725 57.7211C47.157 57.6111 47.6601 57.6014 48.1488 57.6926Z" fill="#455A64"/>
<path d="M61.1631 90.9208L57.2544 93.3012L54.3648 89.0489L58.2736 86.6793C58.4864 87.0256 58.6992 87.361 58.912 87.6748C59.6512 88.7243 60.4016 89.8171 61.1631 90.9208Z" fill="#455A64"/>
<path d="M63.1009 93.7664L59.2256 96.2009C58.744 95.4868 58.2624 94.7727 57.7808 94.0369L61.7009 91.6565C62.1377 92.3382 62.5857 93.0523 63.1009 93.7664Z" fill="#455A64"/>
<path d="M64.3104 95.5409L60.3904 97.9213L59.6736 96.8393L63.5936 94.4589L64.3104 95.5409Z" fill="#455A64"/>
<path d="M45.7856 98.4407C51.072 109.51 56.728 120.784 56.728 120.784C57.4895 120.857 58.2571 120.726 58.9466 120.405C59.6361 120.085 60.2209 119.587 60.6368 118.966L49.9632 96.4931C49.7728 96.1144 49.5936 95.7249 49.4144 95.3462L49.0447 94.5563L47.9247 92.2516L47.544 91.4726L45.304 86.8525C45.1696 86.5928 45.0464 86.3331 44.9232 86.0734L40.6784 77.1361C38.2816 72.1265 37.3184 51.5901 37.3184 51.5901C37.3184 51.5901 36.9264 49.7507 33.6336 50.7678C33.6336 50.7678 34.3056 58.8503 35.1568 66.4676L31.2256 47.9113C30.7138 47.7152 30.1592 47.6472 29.6129 47.7134C29.0667 47.7796 28.5466 47.9779 28.1008 48.29L30.5984 58.9693L25.9616 48.528C25.9616 48.528 24.64 48.2575 22.8704 49.9671L31.8304 68.3611L22.6688 54.2951C21.657 54.579 20.7536 55.1433 20.0704 55.9181C20.0704 55.9181 26.7904 64.9744 34.8992 77.201L23.2176 63.135C22.7484 63.3004 22.3205 63.5593 21.9616 63.8948C21.6027 64.2303 21.3209 64.635 21.1344 65.0826C21.1344 65.0826 35.0448 77.8178 40.768 88.0102L41.1824 88.7784C41.3728 89.1355 41.552 89.4817 41.7088 89.8604C42.2352 91.0073 42.8288 92.1975 43.3552 93.4202L43.7248 94.1992L44.8447 96.5147L45.2144 97.2938C45.4384 97.6725 45.6176 98.0512 45.7856 98.4407Z" fill="white"/>
<path d="M21.1456 65.0935C21.1456 65.0935 35.0561 77.8286 40.7793 88.0211L44.9681 86.0735L40.7232 77.1361C38.3264 72.1265 37.3632 51.5901 37.3632 51.5901C37.3632 51.5901 36.9712 49.7507 33.6784 50.7678C33.6784 50.7678 34.3504 58.8503 35.2016 66.4676L31.2704 47.9113C30.7587 47.7152 30.204 47.6472 29.6577 47.7134C29.1115 47.7796 28.5914 47.9779 28.1456 48.29L30.6432 58.9693L26.0065 48.528C26.0065 48.528 24.6848 48.2575 22.9152 49.9671L31.8753 68.3611L22.7136 54.2951C21.7019 54.579 20.7985 55.1433 20.1152 55.9181C20.1152 55.9181 26.8352 64.9744 34.944 77.2011L23.2624 63.135C22.786 63.2977 22.3508 63.5565 21.9858 63.8941C21.6209 64.2318 21.3344 64.6406 21.1456 65.0935Z" fill="#37474F"/>
<path d="M43.4224 93.4094L47.5776 91.4726L45.3376 86.8525L41.1824 88.7892C41.3728 89.1463 41.552 89.4925 41.7088 89.8712C42.3024 90.9965 42.8512 92.1867 43.4224 93.4094Z" fill="#37474F"/>
<path d="M44.8784 96.5039L49.056 94.5563L47.936 92.2516L43.7697 94.1884L44.8784 96.5039Z" fill="#37474F"/>
<path d="M45.7857 98.4407L49.9632 96.4931C49.7728 96.1144 49.5936 95.7249 49.4144 95.3462L45.2481 97.2829C45.4385 97.6725 45.6177 98.0512 45.7857 98.4407Z" fill="#37474F"/>
<path d="M98.504 77.861H19.0065V123.511H98.504V77.861Z" fill="#263238"/>
<path d="M103.544 77.861H14.0784V86.4521H103.544V77.861Z" fill="#FFCF40"/>
<path opacity="0.2" d="M103.533 77.861H35.952V86.4521H103.533V77.861Z" fill="#030402"/>
<path d="M103.544 88.746H14.0784V97.3371H103.544V88.746Z" fill="#FFCF40"/>
<path opacity="0.2" d="M103.533 88.746H35.952V97.3371H103.533V88.746Z" fill="#030402"/>
<path d="M103.544 99.6309H14.0784V108.222H103.544V99.6309Z" fill="#FFCF40"/>
<path opacity="0.2" d="M103.533 99.6309H35.952V108.222H103.533V99.6309Z" fill="#030402"/>
<path d="M103.544 110.516H14.0784V119.107H103.544V110.516Z" fill="#FFCF40"/>
<path opacity="0.2" d="M103.533 110.516H35.952V119.107H103.533V110.516Z" fill="#030402"/>
<path d="M126.202 60.2352C138.219 84.959 148.445 110.473 142.755 116.499C138.174 121.347 97.5633 131.02 88.5137 131.15C84.6721 131.15 78.4336 102.92 84.9857 101.427C86.8449 101.005 118.507 97.2505 118.765 96.6121C119.582 94.5779 115.707 76.5735 113.714 60.1271C111.742 43.9295 121.117 49.7723 126.202 60.2352Z" fill="#AD6359"/>
<path d="M90.5856 130.738C79.9792 132.794 66.8864 135.964 55.3504 132.091C54.0569 131.692 52.9403 130.884 52.1808 129.797C46.9728 128.152 46.2224 125.285 46.2224 125.285C41.8656 122.32 41.5072 119.28 41.5072 119.28C41.5072 119.28 35.4144 117.278 36.0528 113.524C36.7584 109.315 45.1696 112.95 51.0608 112.215C64.5568 110.527 85.2321 104.219 89.0737 103.364L90.5856 130.738Z" fill="#AD6359"/>
<path d="M66.4048 120.005C58.1486 121.378 49.688 121.09 41.552 119.161C41.5252 119.154 41.4967 119.157 41.4725 119.17C41.4484 119.184 41.4306 119.205 41.4232 119.231C41.4157 119.257 41.4193 119.285 41.433 119.308C41.4466 119.331 41.4692 119.349 41.496 119.356C49.5712 121.833 58.1959 122.117 66.4272 120.178C66.6176 120.156 66.6063 120.005 66.4048 120.005Z" fill="#263238"/>
<path d="M68.6447 127.752C64.7471 127.947 57.8928 128.261 46.1776 125.144C46.1776 125.144 46.1104 125.199 46.1776 125.209C53.276 128.113 61.0701 129.053 68.6896 127.925C68.9024 127.893 68.9023 127.73 68.6447 127.752Z" fill="#263238"/>
<path d="M69.7647 131.907C63.1231 132.004 58.9232 131.258 52.136 129.743C52.136 129.743 52.0688 129.797 52.136 129.808C59.6736 132.296 62.6976 132.372 69.8208 132.113C70.0448 132.123 70.0223 131.907 69.7647 131.907Z" fill="#263238"/>
<path d="M67.1328 109.185C68.8016 108.298 68.3201 107.443 64.9825 106.924C61.6449 106.404 47.9361 107.064 48.1041 102.433C48.2721 97.8023 67.4577 97.9971 73.1025 98.4082C79.0304 98.9264 84.7536 100.763 89.824 103.775C86.1056 104.586 74.4352 107.41 67.1328 109.185Z" fill="#AD6359"/>
<path d="M139.754 83.4333L114.206 78.2506C112.72 70.2463 111.936 62.1348 111.866 54.003C112.034 42.7934 120.669 47.6841 128.195 60.9927C135.722 74.3013 139.754 83.4333 139.754 83.4333Z" fill="#455A64"/>
<path d="M117.141 78.7807C117.006 78.7807 114.262 78.0233 114.262 78.0233C114.262 77.6771 113.725 72.3104 113.534 71.131C113.165 68.729 112.65 66.3377 112.168 63.9573C112.168 63.8816 112.034 63.8924 112.045 63.9573C112.269 65.9807 112.459 68.004 112.717 70.0273C112.582 69.7244 112.448 69.4214 112.336 69.1077C112.09 68.4801 111.888 67.8417 111.675 67.2033C111.675 67.1492 111.563 67.2033 111.574 67.2033C111.694 68.0571 111.936 68.8909 112.291 69.6811C112.432 70.0252 112.6 70.358 112.795 70.6766L112.862 71.1743C113.019 72.3645 113.893 78.2289 113.982 78.2506L117.074 78.9106C117.163 78.9539 117.219 78.7916 117.141 78.7807Z" fill="#263238"/>
<path d="M136.506 77.926C131.04 76.5843 125.462 75.6105 119.885 74.7449C118.306 74.5068 116.715 74.2904 115.125 74.1173V74.1931C117.869 74.799 120.635 75.2751 123.413 75.8269C126.19 76.3787 129.013 76.9089 131.757 77.2984C133.336 77.5473 134.904 77.8069 136.494 78.0233C136.506 78.0342 136.506 77.9368 136.506 77.926Z" fill="#263238"/>
<path d="M99.792 55.1715C103.387 56.2535 109.973 51.1789 112.706 46.9591C112.755 44.5077 112.672 42.0555 112.459 39.6123C112.37 37.2536 112.336 34.6243 112.459 32.2331C112.459 31.7354 96.6784 35.003 96.6784 35.003C97.3821 38.049 97.6981 41.1666 97.6192 44.2866C97.5998 44.6196 97.5434 44.9497 97.4512 45.2712C97.4544 45.3252 97.4544 45.3794 97.4512 45.4335C97.0144 47.2837 96.3088 54.1652 99.792 55.1715Z" fill="#AD6359"/>
<path d="M111.518 32.2439C110.555 36.2473 107.352 45.8988 99.0416 45.6066C98.5074 45.5919 97.9755 45.534 97.4512 45.4335C97.4438 45.3797 97.4438 45.3251 97.4512 45.2712C97.5317 44.951 97.5879 44.6255 97.6193 44.2974C97.6976 41.1733 97.3778 38.0517 96.6672 35.003C96.6672 35.003 108.114 32.6443 111.518 32.2439Z" fill="#263238"/>
<path d="M92.344 9.64095C90.8699 10.0682 89.5647 10.9175 88.6008 12.0767C87.6369 13.2358 87.0598 14.6502 86.9456 16.1329C86.5536 21.3265 88.8384 25.7844 89.3312 26.0008C89.824 26.2172 92.344 9.64095 92.344 9.64095Z" fill="#263238"/>
<path d="M113.4 12.9843C115.517 18.1779 113.859 33.7804 110.23 37.5025C104.955 42.9125 95.6704 44.1027 90.776 37.8379C86.016 31.7679 88.536 11.4695 92.6576 8.01795C98.728 2.94336 110.264 5.31294 113.4 12.9843Z" fill="#AD6359"/>
<path d="M100.89 23.5555C100.89 23.5555 100.979 23.5555 100.968 23.6528C100.834 24.7348 100.845 25.9251 101.797 26.3687C101.797 26.3687 101.797 26.4336 101.797 26.3687C100.598 26.1523 100.587 24.5293 100.89 23.5555Z" fill="#263238"/>
<path d="M101.976 22.5492C103.734 22.5492 103.533 25.99 101.898 25.9575C100.262 25.925 100.498 22.5167 101.976 22.5492Z" fill="#263238"/>
<path d="M94.5616 23.2417C94.5616 23.2417 94.4832 23.2417 94.472 23.3282C94.472 24.4102 94.2368 25.5896 93.2288 25.8926C94.4384 25.871 94.7184 24.2479 94.5616 23.2417Z" fill="#263238"/>
<path d="M93.6544 22.0839C91.9071 21.8567 91.5711 25.2542 93.184 25.4706C94.7968 25.687 95.1216 22.2787 93.6544 22.0839Z" fill="#263238"/>
<path d="M103.466 21.0669C103.006 20.9136 102.558 20.7329 102.122 20.5259C101.62 20.4066 101.177 20.1237 100.867 19.7252C100.792 19.5824 100.769 19.4194 100.802 19.2624C100.834 19.1055 100.92 18.9636 101.046 18.8596C101.322 18.685 101.641 18.5858 101.971 18.5725C102.3 18.5592 102.627 18.6322 102.917 18.7838C103.553 18.9991 104.084 19.4348 104.406 20.0065C104.476 20.1399 104.502 20.29 104.484 20.438C104.465 20.5861 104.401 20.7255 104.301 20.8387C104.2 20.9519 104.067 21.034 103.919 21.0746C103.77 21.1152 103.613 21.1125 103.466 21.0669Z" fill="#263238"/>
<path d="M92.4 20.2986C92.8928 20.2986 93.3408 20.1255 93.8224 20.0281C94.3373 20.0041 94.8278 19.8091 95.2112 19.4763C95.3139 19.3518 95.3698 19.1973 95.3698 19.0381C95.3698 18.8789 95.3139 18.7244 95.2112 18.5999C94.9765 18.3775 94.6844 18.22 94.3653 18.1439C94.0461 18.0678 93.7117 18.0758 93.3968 18.1671C92.7238 18.249 92.1076 18.5736 91.672 19.076C91.5791 19.1962 91.5247 19.34 91.5155 19.4897C91.5063 19.6394 91.5426 19.7885 91.62 19.9185C91.6974 20.0485 91.8126 20.1538 91.9512 20.2213C92.0898 20.2889 92.2458 20.3157 92.4 20.2986Z" fill="#263238"/>
<path d="M99.8592 30.199C99.5587 30.6022 99.1743 30.9404 98.7307 31.1919C98.2872 31.4434 97.7941 31.6027 97.2832 31.6597C96.8411 31.7192 96.3925 31.7192 95.9504 31.6597H95.6928L95.4576 31.6056C95.4003 31.5913 95.3496 31.5592 95.3132 31.5142C95.2767 31.4692 95.2566 31.4138 95.256 31.3567C95.2511 31.3208 95.2511 31.2844 95.256 31.2485V31.1511C95.256 30.3396 95.4353 29.1061 95.4353 29.1061C95.1217 29.2468 93.5088 29.8311 93.5648 29.4091C93.8804 25.743 94.5822 22.1176 95.6593 18.5891C95.6661 18.57 95.679 18.5534 95.696 18.5417C95.7131 18.53 95.7335 18.5237 95.7544 18.5237C95.7753 18.5237 95.7957 18.53 95.8128 18.5417C95.8299 18.5534 95.8428 18.57 95.8496 18.5891C95.5808 21.9649 94.7296 25.2759 94.36 28.6625C94.9352 28.4473 95.5381 28.309 96.152 28.2514C96.264 28.2514 95.8048 30.6209 95.8272 30.9888C96.5126 31.0908 97.2121 31.0601 97.8851 30.8985C98.558 30.7369 99.191 30.4476 99.7472 30.0475C99.848 30.0799 99.9376 30.199 99.8592 30.199Z" fill="#263238"/>
<path d="M96.4543 31.3567C96.9134 31.9406 97.5185 32.4022 98.2128 32.6984C98.5919 32.8522 99.0126 32.8826 99.4112 32.7849C100.285 32.5793 100.318 31.8111 100.173 31.1403C100.087 30.7881 99.9595 30.4467 99.792 30.1232C98.8442 30.868 97.6747 31.3002 96.4543 31.3567Z" fill="#263238"/>
<path d="M98.2128 32.6984C98.592 32.8522 99.0127 32.8826 99.4112 32.7849C100.285 32.5793 100.318 31.8111 100.173 31.1403C99.7125 31.1495 99.2687 31.3083 98.9131 31.5909C98.5575 31.8736 98.3109 32.2637 98.2128 32.6984Z" fill="#FF99BA"/>
<path d="M112.47 26.769C110.656 27.1152 109.2 21.7918 108.842 19.7685C108.528 17.9832 108.562 12.4433 108.517 12.0538C108.472 11.6643 100.307 16.1221 96.0176 14.4017C91.728 12.6814 89.1968 8.54814 89.2976 6.7412C89.3984 4.93426 95.4465 0.963312 100.229 1.22299C105.011 1.48267 110.813 8.00713 110.813 8.00713C110.132 7.06833 109.525 6.08086 108.998 5.05326C109.812 5.32164 110.545 5.78014 111.131 6.38796C111.717 6.99579 112.139 7.73411 112.358 8.5373C112.358 8.5373 112.045 5.81067 112.291 5.78903C112.538 5.76739 114.666 8.28844 113.938 9.95472C113.938 9.95472 116.435 12.5623 116.413 15.1159C116.39 17.6694 114.598 26.3795 112.47 26.769Z" fill="#263238"/>
<path d="M92.9713 13.1899C94.2047 14.0086 95.5606 14.6399 96.992 15.0618C98.6076 15.373 100.278 15.2912 101.853 14.8237C103.447 14.4109 104.96 13.7494 106.333 12.8653C107.542 12.0971 108.64 11.1341 109.917 10.4741C110.23 10.301 110.533 10.7554 110.32 10.9935C108.042 13.478 105 15.192 101.64 15.8841C100.08 16.2026 98.4615 16.1247 96.9421 15.6582C95.4227 15.1917 94.0546 14.3524 92.9713 13.2224C92.9713 13.2224 92.9489 13.1683 92.9713 13.1899Z" fill="#263238"/>
<path d="M111.026 25.7736C111.026 25.7736 114.318 20.5908 116.738 21.7052C119.157 22.8197 116.883 30.1773 114.195 31.3242C113.862 31.4951 113.496 31.5988 113.12 31.6291C112.743 31.6593 112.365 31.6154 112.007 31.5001C111.649 31.3847 111.318 31.2004 111.036 30.9581C110.754 30.7159 110.526 30.4208 110.365 30.0907L111.026 25.7736Z" fill="#AD6359"/>
<path d="M116.032 23.7935C116.032 23.7935 116.032 23.7935 116.032 23.8692C115.182 24.3485 114.444 24.9932 113.866 25.7625C113.288 26.5317 112.881 27.4088 112.672 28.3379C112.774 28.1521 112.916 27.9893 113.088 27.8601C113.26 27.7309 113.458 27.6383 113.669 27.5882C113.881 27.5382 114.101 27.5318 114.315 27.5697C114.529 27.6075 114.733 27.6886 114.912 27.8077C114.912 27.8077 114.912 27.9159 114.912 27.9051C114.566 27.8189 114.201 27.8393 113.868 27.9634C113.534 28.0876 113.249 28.3093 113.053 28.5976C112.728 29.0781 112.454 29.5892 112.235 30.1232C112.157 30.2963 111.843 30.2206 111.899 30.0258C111.709 27.613 113.411 24.183 116.032 23.7935Z" fill="#263238"/>
<path d="M92.344 7.23891C93.968 7.08743 102.547 8.81863 106.064 11.3181C109.581 13.8175 115.27 21.1534 115.562 21.543C115.853 21.9325 121.005 6.21101 110.029 1.40693C98.0784 -3.82995 92.344 7.23891 92.344 7.23891Z" fill="#FFCF40"/>
<path d="M115.024 20.7856C115.024 20.7856 109.547 8.34254 105.806 5.08572C102.066 1.8289 92.8256 -1.17906 86.4416 0.692799C81.4352 2.16432 90.8208 10.6364 90.8208 10.6364C91.4741 9.62384 92.4482 8.8421 93.5984 8.40747C96.6896 7.62843 101.931 9.48947 104.798 11.1666C108.405 13.2765 115.024 20.7856 115.024 20.7856Z" fill="#FFCF40"/>
<path opacity="0.2" d="M115.024 20.7856C115.024 20.7856 109.547 8.34254 105.806 5.08572C102.066 1.8289 92.8256 -1.17906 86.4416 0.692799C81.4352 2.16432 90.8208 10.6364 90.8208 10.6364C91.4741 9.62384 92.4482 8.8421 93.5984 8.40747C96.6896 7.62843 101.931 9.48947 104.798 11.1666C108.405 13.2765 115.024 20.7856 115.024 20.7856Z" fill="black"/>
<path d="M12.1072 81.1071C9.53117 84.9698 3.75201 89.4385 2.88961 92.7386C2.65824 93.5388 2.6963 94.3895 2.9983 95.1675C3.3003 95.9455 3.85059 96.6106 4.56961 97.0666C4.56961 97.0666 0.873631 98.3 0.593631 101.395C0.448032 103.007 2.99037 104.641 2.99037 104.641C2.16852 104.963 1.45463 105.499 0.927088 106.188C0.399548 106.877 0.0787843 107.693 0 108.547C0 110.776 2.49757 112.085 2.49757 112.085C2.49757 112.085 0.257597 114.411 0.907195 116.694C2.32959 121.336 21.952 123.803 25.928 117.192C27.776 114.119 22.9487 113.773 22.9487 113.773C22.9487 113.773 30.0159 112.691 30.6543 108.752C31.2927 104.814 24.9759 104.77 24.9759 104.77C24.9759 104.77 31.8191 103.634 32.0543 99.5227C32.2895 95.1947 25.9727 96.2118 25.9727 96.2118C25.9727 96.2118 30.7215 94.037 30.1055 90.791C29.1759 85.5433 20.0255 90.8451 15.8703 89.3194L14.4256 82.135L12.1072 81.1071Z" fill="#AD6359"/>
<path d="M7.36959 86.582C9.47519 82.73 4.95034 77.0604 6.41755 73.0894C8.39995 67.6794 14.112 73.955 14.4592 82.1566L13.5744 88.5728L7.36959 86.582Z" fill="#AD6359"/>
<path d="M2.86721 112.431C2.80001 112.431 2.76641 112.507 2.86721 112.528C9.36073 114.971 16.4694 115.451 23.2512 113.902C23.464 113.848 23.464 113.491 23.2512 113.502C16.4388 114.105 9.5717 113.744 2.86721 112.431Z" fill="#263238"/>
<path d="M2.8897 104.76C2.8113 104.76 2.7777 104.857 2.8897 104.889C10.0744 107.521 17.9976 107.579 25.2225 105.052C25.4689 104.965 25.5922 104.63 25.301 104.727C20.2833 106.209 9.13931 106.069 2.8897 104.76Z" fill="#263238"/>
<path d="M26.4432 95.9305C19.3536 98.3325 12.1856 98.2892 4.82723 97.2289C4.72643 97.2289 4.71523 97.3479 4.82723 97.3803C8.27683 98.8519 13.0481 99.0574 16.7665 98.906C20.2062 98.8383 23.5684 97.906 26.5216 96.201C26.6448 96.1036 26.5888 95.8764 26.4432 95.9305Z" fill="#263238"/>
</svg>
