<svg width="25" height="25" viewBox="0 0 25 25" fill="none" xmlns="http://www.w3.org/2000/svg">
<path d="M12.5 13.5415C14.2259 13.5415 15.625 12.1424 15.625 10.4165C15.625 8.69061 14.2259 7.2915 12.5 7.2915C10.7741 7.2915 9.375 8.69061 9.375 10.4165C9.375 12.1424 10.7741 13.5415 12.5 13.5415Z" stroke="black" stroke-width="2" stroke-linecap="round" stroke-linejoin="round"/>
<path d="M12.5 2.08325C10.2899 2.08325 8.17027 2.96123 6.60746 4.52403C5.04466 6.08683 4.16669 8.20645 4.16669 10.4166C4.16669 12.3874 4.58544 13.677 5.72919 15.1041L12.5 22.9166L19.2709 15.1041C20.4146 13.677 20.8334 12.3874 20.8334 10.4166C20.8334 8.20645 19.9554 6.08683 18.3926 4.52403C16.8298 2.96123 14.7102 2.08325 12.5 2.08325V2.08325Z" stroke="black" stroke-width="2" stroke-linecap="round" stroke-linejoin="round"/>
</svg>
